<?xml version="1.0" standalone="no"?>
<!DOCTYPE svg PUBLIC "-//W3C//DTD SVG 20010904//EN"
 "http://www.w3.org/TR/2001/REC-SVG-20010904/DTD/svg10.dtd">
<svg version="1.0" xmlns="http://www.w3.org/2000/svg"
 width="304.000000pt" height="271.000000pt" viewBox="0 0 304.000000 271.000000"
 preserveAspectRatio="xMidYMid meet">
<metadata>
Created by potrace 1.15, written by Peter Selinger 2001-2017
</metadata>
<g transform="translate(0.000000,271.000000) scale(0.100000,-0.100000)"
fill="red" stroke="none">
<path d="M1494 2182 c-6 -4 -14 -29 -18 -57 -18 -125 -38 -201 -60 -225 -13
-14 -34 -45 -46 -70 -28 -56 -58 -90 -81 -90 -10 0 -24 -8 -31 -19 -20 -29
-141 -82 -200 -88 -49 -5 -63 -1 -154 42 -88 42 -139 73 -314 192 -113 76
-201 133 -208 133 -4 0 -33 23 -65 50 -59 50 -107 65 -123 38 -10 -15 41 -58
70 -58 12 0 60 -25 106 -55 46 -30 86 -55 89 -56 3 0 33 -20 66 -45 33 -24 94
-67 135 -96 41 -28 104 -78 140 -110 36 -32 81 -63 100 -68 77 -21 137 -115
124 -196 -3 -24 -1 -50 5 -62 15 -28 -1 -68 -31 -78 -40 -12 -220 -43 -283
-47 -140 -11 -218 -32 -223 -61 -4 -21 -14 -22 123 9 74 17 96 20 265 29 58 4
113 9 123 12 21 6 47 -12 47 -32 0 -8 -11 -24 -25 -36 -14 -12 -25 -27 -25
-34 0 -20 -91 -95 -140 -116 -185 -78 -215 -99 -154 -106 17 -2 35 5 53 21 29
28 83 57 104 57 8 0 39 17 68 37 41 28 67 38 107 41 62 5 81 -8 117 -79 13
-25 31 -52 40 -59 23 -19 83 -40 116 -40 33 0 69 -39 69 -76 1 -16 7 -40 15
-54 18 -31 19 -73 3 -116 -14 -40 1 -84 31 -84 31 0 44 27 43 90 -1 54 2 63
29 90 34 34 59 39 59 12 0 -9 11 -34 25 -54 14 -20 25 -44 25 -52 0 -8 6 -19
13 -23 25 -16 41 -45 49 -91 24 -128 29 -163 35 -239 3 -58 9 -83 18 -83 7 0
16 7 19 16 9 23 7 72 -3 78 -11 7 -24 108 -22 174 1 30 -2 59 -7 65 -17 22
-42 110 -42 149 l0 39 38 -7 c43 -7 62 -27 62 -65 0 -40 19 -84 30 -73 7 7 3
37 -10 85 -24 91 -25 125 -4 133 25 10 34 -2 34 -45 0 -53 23 -48 31 7 3 21
18 62 33 90 24 46 31 52 64 56 20 3 43 7 51 9 9 2 17 -6 22 -21 6 -23 7 -23 8
-3 1 24 12 27 156 42 94 11 121 32 111 90 -3 18 0 52 6 75 9 37 8 45 -13 79
-13 22 -39 56 -58 78 -28 32 -31 42 -21 54 10 12 9 15 -6 15 -12 0 -28 16 -41
39 l-23 39 48 34 c48 35 135 68 178 68 12 0 25 3 27 8 3 4 -31 7 -74 8 -71 0
-82 3 -107 26 -36 34 -78 54 -132 63 -57 9 -70 20 -70 59 0 29 54 110 94 141
8 6 31 38 52 72 45 71 144 176 203 215 30 20 41 35 41 53 0 16 -6 25 -15 25
-14 0 -225 -207 -225 -221 0 -3 -16 -21 -36 -40 -20 -18 -44 -53 -54 -76 -15
-32 -25 -43 -51 -48 -29 -7 -37 -3 -69 32 -34 36 -37 44 -43 121 -6 76 -4 87
20 138 14 30 29 57 34 60 5 3 9 14 9 25 0 31 -39 25 -45 -8 -11 -54 -39 -98
-60 -94 -61 10 -111 10 -126 -1 -8 -7 -32 -41 -53 -75 -35 -57 -47 -67 -109
-87 -12 -4 -28 4 -48 23 -35 36 -38 79 -9 161 22 64 25 101 8 118 -14 14 -19
14 -34 4z"/>
</g>
</svg>
