<?xml version="1.0" standalone="no"?>
<!DOCTYPE svg PUBLIC "-//W3C//DTD SVG 20010904//EN"
 "http://www.w3.org/TR/2001/REC-SVG-20010904/DTD/svg10.dtd">
<svg version="1.0" xmlns="http://www.w3.org/2000/svg"
 width="336.000000pt" height="228.000000pt" viewBox="0 0 336.000000 228.000000"
 preserveAspectRatio="xMidYMid meet">
<metadata>
Created by potrace 1.15, written by Peter Selinger 2001-2017
</metadata>
<g transform="translate(0.000000,228.000000) scale(0.100000,-0.100000)"
fill="blue" stroke="none">
<path d="M1808 2263 c-14 -15 -18 -37 -18 -93 0 -46 -7 -94 -19 -129 -10 -31
-22 -69 -25 -84 -9 -38 -64 -86 -99 -87 -20 0 -30 -6 -34 -19 -12 -45 -114
-18 -174 47 -23 24 -41 36 -47 30 -21 -21 -37 -4 -166 171 -32 44 -67 66 -91
57 -11 -4 -14 -13 -10 -28 11 -42 28 -68 43 -68 19 0 127 -113 158 -166 17
-28 23 -51 19 -64 -4 -13 1 -29 13 -45 15 -19 18 -33 13 -57 -4 -18 -3 -40 2
-49 6 -9 7 -24 4 -33 -6 -15 -16 -17 -74 -10 -38 3 -89 12 -115 19 -27 7 -48
9 -48 6 0 -4 46 -29 103 -56 62 -30 102 -56 102 -65 0 -9 -8 -14 -21 -13 -16
2 -21 -2 -18 -15 7 -28 -19 -67 -44 -67 -14 0 -27 -9 -35 -25 -7 -14 -21 -26
-32 -28 -11 -1 -42 -9 -70 -17 -27 -7 -87 -17 -132 -20 -98 -8 -163 -26 -177
-48 -17 -27 8 -41 79 -45 59 -4 68 -2 102 24 l38 29 160 0 160 0 22 -40 c12
-22 22 -51 22 -64 1 -35 -46 -91 -95 -113 -32 -13 -50 -30 -64 -58 -24 -47
-86 -107 -120 -115 -30 -8 -88 -70 -97 -104 -5 -19 0 -30 21 -48 37 -32 59
-29 101 14 27 28 35 44 35 73 0 32 7 42 49 78 27 23 61 47 75 53 15 7 36 27
47 45 47 77 126 117 147 77 13 -25 -4 -135 -28 -183 -24 -47 -26 -88 -5 -96
25 -10 57 35 50 67 -4 16 0 39 9 56 13 24 15 26 21 10 4 -10 4 -41 1 -68 -7
-54 7 -62 17 -10 7 31 39 71 58 71 6 0 13 -9 16 -19 3 -11 11 -17 18 -14 35
13 31 -163 -5 -241 -22 -49 -25 -73 -10 -96 8 -13 13 -13 37 0 36 20 52 63 31
83 -13 14 -13 24 -2 84 7 37 13 81 14 98 0 16 10 53 22 83 16 39 26 51 37 46
9 -3 21 -8 27 -11 7 -2 29 14 50 36 21 23 46 41 58 41 28 0 123 -55 135 -79 6
-10 33 -35 61 -55 36 -26 50 -43 50 -59 0 -35 26 -82 66 -116 40 -36 55 -38
77 -13 14 15 15 27 8 66 -10 53 -29 79 -73 97 -38 16 -90 69 -125 129 -15 25
-35 56 -45 69 -34 44 -24 65 42 95 46 21 64 25 79 16 29 -15 136 -13 150 3 13
16 5 27 -20 27 -10 0 -23 9 -29 19 -15 28 31 63 74 57 17 -3 60 -8 96 -11 36
-3 98 -13 138 -21 59 -12 81 -13 109 -3 l37 12 -35 17 c-22 12 -56 18 -94 17
-62 0 -143 24 -255 77 -30 14 -64 26 -75 26 -21 0 -85 29 -110 50 -20 17 -19
54 3 72 35 31 68 41 136 40 57 0 77 4 103 21 40 27 47 42 26 58 -21 18 -80 12
-112 -12 -40 -29 -148 -26 -197 6 -23 15 -23 17 -9 45 8 16 15 38 15 48 0 11
18 36 41 57 39 35 89 131 89 171 0 9 7 32 16 51 21 43 9 59 -29 42 -15 -7 -27
-17 -27 -22 0 -5 -23 -41 -51 -78 -36 -49 -65 -76 -98 -92 -25 -13 -74 -40
-109 -60 l-63 -37 -20 23 c-10 12 -35 39 -54 60 l-35 38 0 122 c0 88 4 129 15
147 26 46 28 51 19 82 -9 29 -9 30 -26 11z"/>
<path d="M825 632 c-23 -15 -77 -64 -121 -109 -45 -46 -88 -83 -97 -83 -17 0
-34 -42 -28 -70 9 -44 73 -24 101 30 11 21 38 54 61 72 42 34 48 39 112 115
56 67 40 92 -28 45z"/>
<path d="M1685 413 c-13 -142 -14 -266 -2 -290 10 -22 41 -31 51 -15 12 20 9
289 -4 340 -20 78 -36 66 -45 -35z"/>
</g>
</svg>
