<?xml version="1.0" standalone="no"?>
<!DOCTYPE svg PUBLIC "-//W3C//DTD SVG 20010904//EN"
 "http://www.w3.org/TR/2001/REC-SVG-20010904/DTD/svg10.dtd">
<svg version="1.0" xmlns="http://www.w3.org/2000/svg"
 width="247.000000pt" height="341.000000pt" viewBox="0 0 247.000000 341.000000"
 preserveAspectRatio="xMidYMid meet">
<g transform="translate(0.000000,341.000000) scale(0.100000,-0.100000)"
fill="#43b7ff" stroke="none">
<path d="M920 2749 c0 -9 26 -19 51 -19 10 0 19 -4 19 -10 0 -18 42 -59 56
-53 8 3 14 1 14 -5 0 -6 -11 -9 -25 -7 -14 1 -28 -2 -31 -7 -3 -5 -12 -4 -20
3 -8 6 -25 9 -39 7 -14 -3 -28 -1 -31 4 -3 5 -12 4 -20 -3 -20 -17 -31 -2 -16
22 12 18 11 19 -7 10 -24 -13 -36 -31 -22 -31 6 0 11 -7 11 -15 0 -9 6 -12 17
-8 10 4 14 2 10 -4 -9 -14 21 -46 34 -38 5 4 9 1 9 -5 0 -14 -51 -4 -61 11 -3
5 -18 8 -33 7 -23 -2 -27 -6 -23 -25 5 -29 -6 -37 -32 -23 -16 8 -21 6 -26
-13 -3 -12 -11 -33 -18 -46 -9 -19 -9 -25 6 -36 21 -15 22 -26 2 -19 -8 4 -15
1 -15 -5 0 -6 -11 -11 -25 -11 -14 0 -29 -8 -35 -21 -15 -27 -7 -34 20 -19 17
9 25 9 33 1 15 -15 -7 -31 -43 -31 -17 0 -29 -8 -37 -25 -14 -30 -10 -31 28
-4 28 19 29 19 29 2 0 -13 -12 -23 -34 -31 -20 -8 -38 -22 -42 -35 -4 -12 -14
-27 -23 -34 -14 -11 -13 -12 7 -13 13 0 22 6 22 15 0 8 6 15 14 15 9 0 12 -7
9 -19 -3 -12 2 -20 16 -24 12 -3 21 -1 21 4 0 5 -6 9 -12 9 -7 0 -5 5 5 11 21
12 22 29 2 29 -8 0 -15 5 -15 10 0 14 27 12 36 -2 5 -7 9 -30 10 -51 l2 -39
-43 6 c-48 8 -60 0 -40 -27 11 -15 14 -15 25 -2 16 19 30 19 30 1 0 -7 6 -19
14 -26 8 -6 12 -18 9 -26 -3 -8 5 -17 21 -24 37 -14 32 -21 -11 -17 -35 2 -38
5 -35 31 3 25 2 27 -17 16 -12 -6 -19 -16 -15 -22 4 -5 0 -14 -7 -19 -10 -6
-11 -11 -3 -19 8 -8 14 -8 18 -2 8 14 86 -7 93 -24 3 -8 14 -14 24 -14 10 0
19 -4 19 -9 0 -5 -13 -9 -30 -9 -17 1 -30 7 -30 13 0 21 -25 36 -38 23 -16
-16 -15 -28 3 -28 14 0 19 -14 18 -48 -1 -10 6 -12 23 -8 19 5 27 1 35 -18 7
-14 18 -22 28 -20 9 3 30 0 46 -5 l30 -8 -25 -11 c-35 -14 -56 -40 -43 -53 7
-7 16 -5 28 7 25 25 45 26 45 2 0 -14 5 -18 16 -14 13 5 15 2 11 -14 -4 -16 0
-20 19 -20 31 0 32 -29 2 -55 -15 -13 -18 -20 -10 -23 7 -2 20 4 27 14 13 16
16 17 24 4 8 -12 12 -12 29 3 10 9 32 19 48 22 23 5 33 1 49 -20 47 -65 64
-160 49 -278 -4 -28 -2 -53 5 -60 5 -7 13 -32 17 -54 3 -24 16 -51 29 -63 22
-21 24 -21 49 -5 15 10 40 38 57 63 27 39 29 48 18 68 -7 13 -10 43 -7 73 3
34 0 57 -8 70 -16 22 -9 51 13 51 8 0 11 -5 7 -11 -3 -6 -2 -14 3 -18 5 -3 19
-21 32 -39 23 -33 45 -36 78 -10 15 12 5 38 -15 38 -17 0 -72 48 -72 62 0 4
11 8 23 8 13 0 32 9 42 20 18 20 18 22 -3 64 -12 24 -22 46 -22 50 0 15 24 4
42 -19 11 -14 27 -25 36 -25 9 0 31 -14 48 -31 38 -37 64 -33 64 8 0 20 -10
36 -35 56 -20 16 -33 32 -31 36 3 4 -3 13 -14 21 -17 13 -17 14 1 43 17 29 17
31 1 44 -16 12 -15 13 6 19 23 7 28 29 12 54 -8 13 -11 13 -22 -2 -10 -13 -15
-14 -23 -5 -18 22 -13 45 11 51 13 4 24 11 24 16 0 6 5 10 10 10 6 0 6 -7 -2
-19 -16 -27 18 -71 48 -61 29 11 48 36 29 38 -8 1 -22 3 -30 4 -22 2 -19 10
16 41 26 22 29 30 19 42 -7 8 -20 15 -30 15 -23 0 -44 26 -34 41 4 8 3 9 -4 5
-7 -4 -12 -3 -12 3 0 5 6 12 13 14 9 4 8 8 -3 17 -13 9 -12 11 5 8 14 -2 20
-11 19 -26 -1 -12 3 -22 7 -22 5 0 9 7 9 15 0 8 4 15 10 15 5 0 9 16 7 35 -2
33 -21 48 -29 24 -3 -9 -10 -8 -24 1 -18 11 -19 17 -10 36 6 13 17 22 24 19 6
-2 12 0 12 6 0 6 9 8 20 4 21 -7 60 10 60 26 0 5 -11 7 -24 3 -32 -8 -66 22
-66 58 0 20 -5 28 -17 28 -15 0 -16 -2 -3 -10 8 -5 13 -10 10 -11 -3 0 -13 -2
-22 -4 -13 -2 -18 3 -18 22 0 22 -3 24 -25 19 -22 -6 -25 -3 -25 18 0 20 4 24
18 19 13 -5 12 -1 -5 16 -12 11 -27 21 -33 21 -5 0 -10 5 -10 10 0 6 8 10 18
10 11 0 27 9 37 20 18 19 17 20 -3 20 -34 0 -70 -18 -75 -37 -3 -15 -6 -13
-15 10 -7 16 -10 33 -6 38 3 5 -2 9 -11 9 -9 0 -13 -4 -10 -10 3 -5 -1 -10 -9
-10 -9 0 -16 7 -16 15 0 8 -9 16 -20 16 -39 3 -43 4 -47 16 -2 6 4 13 14 16
17 4 17 5 1 6 -11 1 -18 9 -18 22 0 31 -18 59 -35 53 -21 -8 -19 -44 2 -44 27
0 2 -17 -34 -23 -25 -5 -33 -3 -33 8 0 8 7 15 15 15 22 0 18 17 -5 23 -14 4
-25 -2 -36 -19 -19 -28 -32 -31 -30 -7 1 17 -3 19 -44 22 -15 1 -20 8 -20 29
0 20 -3 23 -10 12 -7 -12 -13 -10 -32 11 -16 17 -35 26 -56 26 -18 0 -32 -4
-32 -8z"/>
<path d="M1124 1185 c-16 -25 -16 -27 5 -56 13 -17 20 -37 16 -48 -11 -37 -8
-93 6 -102 42 -27 72 10 70 86 -1 28 -7 45 -23 56 -14 11 -21 28 -22 50 -1 43
-28 50 -52 14z"/>
</g>
</svg>
