<svg id="Layer_1" data-name="Layer 1" xmlns="http://www.w3.org/2000/svg" viewBox="0 0 518.6 147.71"><defs><style>.cls-1,.cls-2{fill:#231f20;}.cls-1{fill-rule:evenodd;}.cls-2{font-size:48px;font-family:BodoniSvtyTwoSCITCTT-Book, "Bodoni 72 Smallcaps";}</style></defs><title>portWebLogo</title><path class="cls-1" d="M528.15,113l-2.37.9-2.54,1L520,116.3a213.07,213.07,0,0,0-19.29,9.89c-7.71,4.33-16.43,9.68-26.08,14.48A116.34,116.34,0,0,1,459.36,147a79.24,79.24,0,0,1-17,3.38c-12.18,1.15-25.82,0-40.19-1.88s-29-4.19-43.54-7c-29.09-5.58-57.73-12.7-82.75-19.24-13.56-4.21-27.07-8.61-40.59-13.09s-27.21-9.28-42.1-12.62c-1.75-.49-3.67-.91-5.41-1.32s-3.33-.71-4.45-.92-2.54-.45-3.83-.66a17.36,17.36,0,0,0,2-.62,9.14,9.14,0,0,0,3.71-2.68c0-.29.34-.6.44-.88a4.11,4.11,0,0,0,.1-1.9,8.41,8.41,0,0,0-.36-.94c0-.1.09-.15.06-.23a7.24,7.24,0,0,0-1-1.4c-.15-.16-.34-.28-.51-.46,0,0,.06-.07,0-.11a12.7,12.7,0,0,0-3.55-2c-.1,0-.12.06-.24,0a11.3,11.3,0,0,0-1.38-.38,13.89,13.89,0,0,0-7.29.53c-1.67.71-2.87,2.23-2.76,3.44.1,1,1.32,2.15,3.22,3a7.15,7.15,0,0,0,5,.53,2.14,2.14,0,0,1-1.28-.69,1,1,0,0,1,.36-.87,3.09,3.09,0,0,1,2.77,0c1.43.75,1.48,2.18-.06,2.83a9.39,9.39,0,0,0-1.13.37,18.69,18.69,0,0,1-1.91.45c-1.75.35-3.89.72-5.51.91l-.85.07c-2.61-.18-4.93-.17-7.21-.26l-3.29-.15c-1-.07-2.08-.14-3.08-.16l.13,0c1.24-.24,2.11-.42,3.18-.71.4-.11.87-.14,1.21-.26.13,0,.21-.16.34-.21a14.6,14.6,0,0,0,1.39-.52c1.45-.72,3-2,3.1-3.43-.31-1-1-2-2.9-2.67-.2-.07-.42-.1-.63-.16-2.9-.53-5.51.66-5.72,2.63a.72.72,0,0,1,.27.52c.64.61,2.76,1.16,3.64.66-.47,0-.67,0-.86-.31-.08-.65,1.16-.88,1.82-.33.27.67-.11,1.24-.87,1.84a6.91,6.91,0,0,1-1.12.59,10.79,10.79,0,0,1-1.53.75c-.48.16-1.05.27-1.55.4-.14,0-.23.1-.34.12-.39.1-.7.21-1.08.28s-1,.11-1.62.2c-.28,0-.54.17-.84.21l-.59.07c-1-.11-2.07-.25-3.06-.43s-2-.28-2.93-.5a21.62,21.62,0,0,1-5.42-1.87c-1.69-.88-2.48-1.85-2.64-2.79a2.92,2.92,0,0,1,1.12-2.6c1.58-1.4,4.42-1.91,5.59,0-1.53,1-3.63,2.49-3.75,3.49s1.68,1.45,7.81.6c6.34-1.41,6.6-5.63,3-8.79a13.24,13.24,0,0,0-3.42-2.08,13.4,13.4,0,0,0-2.19-.75,21.15,21.15,0,0,0-2.52-.38,22.9,22.9,0,0,0-5.68.21c-.5.08-1,.18-1.52.29s-1,.3-1.56.48a28.36,28.36,0,0,0-3.16,1.33,22.34,22.34,0,0,0-4.2,2.6,9.09,9.09,0,0,0-2.18,2.66,4,4,0,0,0,.43,4.48,11.36,11.36,0,0,0,4.71,3.16,26.87,26.87,0,0,0,6.86,1.92l2.7.36q1.35.24,2.67.42c1.78.25,3.54.44,5.3.57s3.47.4,5.21.51,3.47.21,5.21.29c3.44.3,6.84.36,10.41.46s7.28.32,10.92.59a112.16,112.16,0,0,1-12.76,1.74,118.24,118.24,0,0,1-13.09.37c-4.39-.22-8.83-.31-13.08-.92-2.13-.19-4.22-.42-6.25-.78-1-.18-2-.38-3-.61s-1.92-.36-2.85-.58a53.32,53.32,0,0,1-5.78-1.71,38.84,38.84,0,0,1-5.32-2.26c-3.22-1.74-5.65-4.07-5.81-7.32s3.18-4.89,5.47-5,3.39,1-1,2.6c.58,1.24,2.32,1.31,4.41.72a21.58,21.58,0,0,0,6.56-3.49c2-1.46,3.65-3.25,3.94-5s-.77-3.45-4.31-4.66c-3.19-1.17-6.77-.86-10.26.11a26.41,26.41,0,0,0-9.58,5.11,24.83,24.83,0,0,0-6.38,7.29,13,13,0,0,0-2.12,6.56,10.81,10.81,0,0,0,2.64,6.74A10.33,10.33,0,0,0,103,96.9a15.87,15.87,0,0,0,3.37,1.38,32.58,32.58,0,0,0,8.29,1.09c1.56.08,3.19.09,4.85,0s3.32-.2,5.11-.19c3.54-.07,7.13-.44,10.79-.46,1.83,0,3.64-.21,5.44-.23s3.58,0,5.33-.06l2.6-.08,2.52,0c1.67,0,3.28,0,4.84,0s3,0,4.46,0,2.75,0,4,0c-2.08.51-4.26.94-6.5,1.28s-4.59.85-7,1.17-4.83.8-7.31,1.12c-1.23.2-2.49.28-3.73.55s-2.5.46-3.77.67-2.53.37-3.78.64l-3.75.79c-1.25.27-2.52.48-3.75.75l-3.64.91-3.62.83-3.45.94c-2.26.63-4.57,1.11-6.59,1.73a94.19,94.19,0,0,1-10.41,2.18,41,41,0,0,1-5.09.41,21.73,21.73,0,0,1-4.49-.36c-4.17-.84-4.8-3.62-4.06-6.11s2.93-4.6,3.88-4c.76.51-.76,2.18-1.44,3.53-.31.68-.44,1.28,0,1.61s1.32.4,3.24,0c3.38-.61,5.24-3,6.42-5.58a14.81,14.81,0,0,0,1.39-7.24c-.44-4-2.63-5.69-5.78-5.74a11.4,11.4,0,0,0-2.52.27,14.45,14.45,0,0,0-2.67.83,26.67,26.67,0,0,0-5.31,3.07,27,27,0,0,0-2.53,2.09,31.69,31.69,0,0,0-2.15,2.34,25.72,25.72,0,0,0-3.4,5.21c-1.63,3.59-2,7.31-.59,10.55,3.21,7.2,8.71,9.69,15.25,9.34,6.69-.27,14.36-3.53,23-7.18,2.07-1,4.35-1.82,6.54-2.79,1.12-.46,2.18-1,3.34-1.42l3.42-1.31c1.15-.43,2.26-.94,3.42-1.31l3.46-1.15c1.15-.37,2.28-.79,3.42-1.14l3.41-.92,3.33-.92c1.1-.3,2.19-.48,3.26-.72,2.13-.42,4.19-1,6.14-1.26l5.49-.84c.85-.12,1.67-.27,2.45-.35l2.21-.2-.91.53a53.8,53.8,0,0,0-5.45,1.73c-1.78.67-3.54,1.27-5.24,2.1a53.63,53.63,0,0,0-9.44,5.59c-1.17.4-2.33.75-3.5,1.06s-2.29.73-3.45,1-2.32.59-3.5.83-2.31.63-3.49.89-2.36.52-3.57.75l-3.59.85c-1.21.27-2.44.52-3.69.77s-2.44.6-3.7.89c-10,2.33-20.65,5.26-31,10-11.76,5.46-20.11,18-31.67,21.5-6.13,1.83-11,2.49-16-.21-7.32-5.56,2-14.64,3-9.46-1.57,1.71-1.59.26-2.8,1.26-1.8,6.26,10.14,3.19,12.11-2.69,1.73-5.13,0-8.26-3.26-9.6s-8-.86-12.28,1.16c-4.8,4-7.51,8.06-8.69,12a17.17,17.17,0,0,0,.57,11.37c2.78,7.06,9.7,12.75,16.78,15.07,18.82,6.22,35.52-.74,50.3-12.44,7.41-5.79,14.34-12.74,21.19-19.45s13.76-13.09,21.44-17.82a25.81,25.81,0,0,0-4,6.47,47.92,47.92,0,0,0-2.11,6.9,18.54,18.54,0,0,0-.5,3,18.88,18.88,0,0,0,0,3.1,13.78,13.78,0,0,0,1.54,5.51,9.11,9.11,0,0,0,3.68,3.75,13,13,0,0,0,2.63,1,11.13,11.13,0,0,0,3.07.39,24.74,24.74,0,0,0,4.08,4.4,9.75,9.75,0,0,0,4.65,2.51,4.54,4.54,0,0,0,.71.08,5.61,5.61,0,0,0,.68.07,3.65,3.65,0,0,0,1.21-.17,3.16,3.16,0,0,0,1-.55,4.28,4.28,0,0,0,.45-.41c.14-.14.3-.27.44-.43a8.86,8.86,0,0,0,1.81-6c-.53-2.74-1.46-4.38-3.89-5.27a3.84,3.84,0,0,0-1.61-.13,4.35,4.35,0,0,0-1.63.64c-.91.6-1.17,1.49.35,2.57,1-1.93,1.62.45,1.29,1.75-2.15.69-3.44-1.12-4.43-3.9l0-.08c-2.44-6.87-3.33-12.68-2.47-17.82h0c.41.38.86.52,1.22.82.12.09.07.23.18.3a7,7,0,0,0,1,.47c.41.19.83.36,1.13.47s.55.14.85.25c.05,0,0,.13.08.15a13.12,13.12,0,0,0,4.6.25c.11,0,0-.14.21-.11a9.13,9.13,0,0,0,1.52-.21,10.8,10.8,0,0,0,3.61-1.68,10.62,10.62,0,0,0,2.77-2.44,5.67,5.67,0,0,0,.46-5.77,5.07,5.07,0,0,0-2.15-1.82,8.48,8.48,0,0,0-3.59-.89c-2.42-.1-5,.49-5.78,2a2.61,2.61,0,0,1,1.93.15,1.7,1.7,0,0,1,.38,1.34,3,3,0,0,1-2.74,1.57,2.74,2.74,0,0,1-2.85-2.25c2.42-3.86,6.29-6.74,11-8.88a47.14,47.14,0,0,1,7.72-2.47,77,77,0,0,1,8.68-1.2l-.15,0a21.92,21.92,0,0,0-3.89,1.84c-.46.28-1.06.46-1.46.72-.14.09-.16.3-.31.41a13.68,13.68,0,0,0-1.51,1.15c-1.46,1.43-2.55,3.67-1.77,5.78a7.5,7.5,0,0,0,5.17,3c.29,0,.57,0,.86.07a7.4,7.4,0,0,0,2.57-.46,5.2,5.2,0,0,0,1.85-1.08,3.73,3.73,0,0,0,1.17-3.64,1.48,1.48,0,0,1-.58-.72,4.89,4.89,0,0,0-2.53-.74,3.4,3.4,0,0,0-2.4.66c.62-.08.9-.11,1.28.2.45.92-1,1.6-2.12,1-.73-.88-.59-1.81,0-2.88a7.08,7.08,0,0,1,1.11-1.17,11.42,11.42,0,0,1,1.6-1.52,12.39,12.39,0,0,1,1.85-.85c.16-.07.25-.17.38-.23.47-.2.83-.41,1.31-.57.63-.21,1.35-.29,2.08-.49.36-.1.67-.3,1-.4l.71-.15c1.91.1,3.85.24,5.79.5,2.33.24,5.42.6,8,1.06a219.36,219.36,0,0,1,32.85,5c10.82,2.37,21.56,5,32.32,7.58,21.51,5.29,43,10.85,64.48,16,24.16,6.34,49.87,12.32,75.05,16.54,12.6,2,25,4,36.85,4.53s23.12-.48,33.15-3.57a123,123,0,0,0,14.29-5.42q6.74-3.1,12.72-6.3c8-4.22,15-8.18,21.07-11.23s11.06-5.3,14.64-6.7c1.76-.76,3.22-1.2,4.22-1.58l1.71-.61c3.38-1.14,5.65-4,5-6.47a3.87,3.87,0,0,0-2.86-2.57A8.67,8.67,0,0,0,528.15,113Z" transform="translate(-19.52 -22.97)"/><text class="cls-2" transform="translate(103.78 40.85)">Port Web Solutions</text></svg>