<?xml version="1.0" standalone="no"?>
<!DOCTYPE svg PUBLIC "-//W3C//DTD SVG 20010904//EN"
 "http://www.w3.org/TR/2001/REC-SVG-20010904/DTD/svg10.dtd">
<svg version="1.0" xmlns="http://www.w3.org/2000/svg"
 width="2001.000000pt" height="1479.000000pt" viewBox="0 0 2001.000000 1479.000000"
 preserveAspectRatio="xMidYMid meet">
<defs>
      <linearGradient id="Gradient1">
        <stop class="stop1" offset="0%"/>
        <stop class="stop2" offset="60%" stop-opacity=".5"/>
        <stop class="stop3" offset="100%"/>
      </linearGradient>
      <linearGradient id="Gradient2" x1="0" x2="0" y1="0" y2="1">
        <stop offset="0%" stop-color="#3d749c"/>
        <stop offset="30%" stop-color="black" stop-opacity="0"/>
        <stop offset="100%" stop-color="blue"/>
      </linearGradient>
      <linearGradient id="Gradient3" x1="0" x2="0" y1="0" y2="1">
        <stop offset="0%" stop-color="#3d749c"/>
        <stop offset="30%" stop-color="black" stop-opacity="0"/>
        <stop offset="100%" stop-color="#274860"/>
      </linearGradient>

      <style type="text/css">
      	<![CDATA[
        #rect1, #rect2, #rect5, #rect6, #rect7, #rect8, #rect9, #rect10, #rect11   { fill: url(#Gradient1); }
        .stop1 { stop-color: #274860; }
        .stop2 { stop-color: black; stop-opacity: 0; }
        .stop3 { stop-color: #0b0d0f; }
      ]]>
      	<![CDATA[
        #rect3{ fill: url(#Gradient2); }
        .stop1 { stop-color: #274860; }
        .stop2 { stop-color: black; stop-opacity: 0; }
        .stop3 { stop-color: #0b0d0f; }
      ]]> 
      	<![CDATA[
        #rect4 { fill: url(#Gradient3); }
        .stop1 { stop-color: #274860; }
        .stop2 { stop-color: black; stop-opacity: 0; }
        .stop3 { stop-color: #0b0d0f; }
      ]]>  
      </style>
  </defs>
<g transform="translate(0.000000,1479.000000) scale(0.100000,-0.100000)"
fill="#000000" stroke="none">
<path d="M276 14769 c-30 -24 -34 -63 -10 -97 20 -28 83 -31 107 -4 37 41 5
122 -47 122 -13 0 -35 -9 -50 -21z"/>
<path d="M830 14442 c-19 -10 -43 -34 -52 -53 -51 -99 16 -203 132 -203 113 0
179 96 136 198 -29 69 -138 99 -216 58z"/>
<path id="rect1" d="M2530 14277 c0 -33 -93 -134 -131 -142 -45 -10 -99 -44 -99 -62 0 -9
7 -21 17 -28 13 -10 14 -17 5 -45 -15 -41 -15 -95 -2 -121 6 -10 28 -28 48
-38 59 -30 72 -68 46 -135 -12 -32 31 -16 54 19 12 19 30 35 39 35 9 0 46 -30
81 -66 35 -36 67 -63 70 -60 3 3 8 22 11 43 8 49 24 51 51 8 12 -20 30 -35 41
-35 23 0 23 2 4 43 l-16 32 33 -36 c18 -21 43 -40 56 -44 12 -3 29 -19 37 -35
8 -15 26 -31 40 -34 35 -9 65 -41 65 -71 0 -29 24 -34 51 -9 15 14 21 14 53 0
37 -15 56 -46 56 -90 0 -13 10 -30 22 -38 20 -14 21 -17 9 -60 -13 -46 -39
-68 -79 -68 -28 0 -42 -21 -42 -62 0 -42 23 -64 76 -73 54 -10 60 3 91 182 5
32 6 33 47 27 62 -9 68 -12 61 -33 -3 -11 1 -26 10 -35 19 -19 20 -19 47 -5
14 8 23 8 31 0 17 -17 77 -14 77 4 0 9 -7 18 -15 21 -10 4 -12 10 -6 18 5 6
11 24 13 41 3 29 4 29 58 26 30 -2 75 -5 100 -6 25 -1 53 -6 62 -10 12 -5 20
-2 24 9 5 12 -11 33 -55 72 -67 61 -74 84 -41 127 22 28 20 62 -8 106 -8 13
-16 42 -18 63 -3 51 -19 68 -62 68 -23 0 -50 10 -74 26 -39 28 -46 42 -27 61
7 7 7 13 1 17 -5 3 -27 -8 -47 -24 -53 -42 -113 -39 -134 8 -11 22 -9 28 14
49 20 19 24 30 19 51 -10 42 -23 52 -70 52 -47 0 -52 5 -30 29 8 9 17 28 21
43 5 21 2 30 -18 43 -37 24 -91 17 -95 -13 -2 -13 -10 -26 -18 -29 -25 -9 -82
7 -113 32 -16 14 -39 25 -51 25 -17 0 -20 4 -15 19 7 24 -27 58 -70 70 -25 6
-30 13 -28 34 2 30 -12 35 -38 11 -14 -13 -23 -14 -57 -3 -30 9 -48 9 -73 0
-26 -9 -35 -8 -49 4 -26 24 -60 19 -60 -8z"/>
<path id="rect3" d="M8668 14258 c-33 -58 -51 -68 -81 -40 -32 30 -71 28 -96 -4 -32 -41
-27 -81 20 -147 29 -40 47 -57 63 -57 30 0 46 18 46 52 0 34 15 37 24 6 20
-76 -1 -160 -51 -204 -29 -26 -35 -36 -29 -57 8 -35 30 -55 75 -67 20 -5 59
-24 86 -42 42 -28 60 -33 134 -38 47 -4 98 -12 114 -20 20 -10 33 -11 51 -2
29 13 36 7 36 -30 0 -43 -16 -65 -63 -89 -23 -12 -50 -28 -59 -37 -25 -21 -24
-78 2 -94 30 -19 24 -35 -20 -60 -45 -25 -49 -51 -10 -56 40 -5 78 -23 86 -40
4 -10 10 -46 13 -82 6 -62 8 -66 39 -81 41 -19 53 -37 45 -69 -11 -48 -22 -52
-159 -53 -166 -2 -227 14 -232 60 -4 41 25 52 68 27 22 -13 33 -15 41 -7 18
18 1 50 -31 62 -23 7 -30 16 -30 35 0 16 -13 37 -36 59 -34 32 -36 37 -26 66
7 21 8 40 2 56 -8 21 -16 25 -48 25 -57 0 -76 -26 -69 -91 6 -45 4 -52 -13
-56 -19 -5 -29 -43 -11 -43 5 0 14 -12 20 -28 6 -15 27 -40 45 -54 25 -20 36
-38 41 -69 7 -38 5 -44 -28 -76 -44 -42 -78 -110 -84 -168 -4 -34 -1 -49 18
-74 20 -27 21 -35 11 -51 -18 -29 -15 -48 8 -55 27 -9 25 -16 -15 -55 -19 -19
-35 -37 -35 -41 0 -3 15 -9 34 -12 37 -6 96 -44 96 -61 0 -5 -10 -20 -21 -32
-28 -30 -19 -69 21 -92 29 -16 60 -74 60 -109 0 -10 21 -38 46 -64 39 -40 48
-56 55 -101 6 -36 16 -58 31 -71 23 -18 22 -18 -44 -12 -58 5 -68 3 -68 -10 0
-9 19 -24 45 -35 26 -11 45 -26 45 -35 0 -9 7 -18 15 -21 17 -7 20 -37 5 -64
-9 -16 -5 -24 17 -42 65 -55 81 -75 88 -118 9 -54 46 -112 83 -131 15 -7 39
-22 53 -32 15 -10 44 -20 65 -22 47 -5 80 -38 90 -91 8 -44 -2 -55 -60 -61
-25 -3 -50 -11 -55 -17 -4 -6 -19 -42 -31 -81 -15 -47 -32 -78 -52 -95 -26
-22 -29 -30 -26 -75 3 -43 7 -52 30 -63 21 -10 37 -10 64 -3 19 5 42 7 49 4
31 -11 36 -94 10 -149 -25 -54 -17 -70 33 -66 24 1 42 -2 42 -8 0 -5 -9 -10
-19 -10 -32 0 -36 -21 -9 -44 14 -11 28 -29 31 -38 4 -10 19 -20 34 -23 51
-11 58 -19 57 -70 0 -41 -5 -52 -32 -76 -18 -16 -41 -29 -51 -29 -34 0 -68 56
-85 140 -9 45 -15 56 -33 58 -28 4 -43 -29 -43 -94 0 -37 -6 -51 -29 -75 -25
-24 -38 -29 -79 -29 -51 0 -67 -10 -74 -45 -2 -14 -22 -26 -68 -43 -73 -26
-100 -46 -100 -74 0 -33 -20 -59 -56 -74 -19 -8 -34 -19 -34 -24 0 -5 21 -21
48 -35 26 -14 69 -44 96 -67 l48 -43 92 0 c90 0 91 0 91 -24 0 -20 -16 -34
-85 -74 -46 -28 -92 -60 -102 -71 -18 -23 -58 -99 -82 -159 -21 -51 -75 -76
-112 -52 -13 8 -24 25 -24 36 0 12 -12 26 -32 37 -59 31 -164 140 -183 188
-27 72 -74 81 -176 35 -90 -40 -113 -44 -155 -26 -20 8 -53 15 -74 15 -21 0
-48 8 -61 18 -13 11 -37 22 -53 26 -39 9 -114 64 -122 88 -3 10 -24 35 -46 56
-44 40 -72 87 -63 102 10 17 34 11 45 -10 27 -50 125 -65 118 -17 -2 15 -21
32 -65 55 -43 23 -72 47 -93 78 -62 89 -61 128 2 150 32 11 33 13 30 57 -3 43
-2 46 28 52 17 4 29 12 27 18 -5 17 -46 21 -90 7 -52 -15 -71 -7 -106 49 -16
27 -43 58 -61 71 -17 12 -29 27 -27 33 5 17 77 60 195 116 113 55 125 69 137
167 9 68 -9 208 -36 277 -28 74 -96 150 -168 188 -31 16 -75 45 -99 64 -44 35
-123 65 -174 65 -16 0 -51 -10 -78 -21 -51 -22 -68 -22 -147 2 -32 10 -48 10
-67 1 -29 -13 -27 -5 -57 -217 -31 -222 -32 -239 -24 -303 6 -56 9 -59 92
-138 107 -101 108 -116 8 -126 -94 -10 -112 -20 -135 -73 -11 -25 -42 -66 -71
-93 -75 -69 -93 -109 -85 -196 12 -145 24 -228 35 -239 15 -15 14 -48 -4 -90
-19 -47 -19 -140 0 -182 9 -17 31 -48 49 -69 44 -47 91 -49 177 -6 57 30 62
30 91 15 38 -19 55 -19 65 -2 4 8 19 21 33 30 25 16 27 16 68 -28 36 -39 46
-44 62 -35 12 6 20 21 20 35 0 13 5 27 11 31 20 12 42 -24 50 -83 9 -66 25
-83 80 -83 39 0 69 20 69 46 0 30 -32 76 -61 86 -38 13 -37 33 5 72 18 18 39
42 46 55 11 21 17 23 60 18 56 -7 154 -59 177 -93 8 -13 24 -24 36 -24 34 0
214 -118 261 -172 77 -88 136 -224 106 -243 -19 -12 -10 -53 16 -74 22 -17 41
-21 100 -21 l74 0 0 -40 c0 -31 6 -47 28 -68 61 -61 82 -94 82 -133 0 -52 -27
-79 -79 -79 -69 0 -88 -43 -33 -71 15 -7 35 -20 45 -28 24 -19 22 -73 -3 -96
-22 -20 -17 -21 -110 30 -64 35 -98 32 -146 -11 -21 -20 -54 -48 -71 -61 -18
-14 -33 -34 -33 -45 0 -28 26 -73 55 -96 26 -21 33 -42 13 -42 -6 0 -34 19
-61 41 -66 56 -117 57 -138 2 -7 -20 -5 -35 10 -67 28 -58 34 -91 22 -114 -17
-33 -47 -33 -87 -1 -66 52 -139 27 -137 -47 2 -58 41 -88 105 -81 l49 6 -6
-37 c-14 -85 -13 -84 -44 -77 -34 7 -57 -18 -67 -73 -11 -59 29 -84 96 -58 13
5 14 -8 10 -94 -4 -89 -7 -101 -27 -115 -52 -36 -13 -145 51 -145 13 0 31 -3
40 -6 20 -8 21 -34 2 -34 -20 0 -46 -39 -46 -67 0 -13 11 -29 25 -39 28 -18
41 -66 30 -113 -5 -23 -16 -35 -40 -45 -48 -20 -56 -41 -37 -92 15 -41 15 -46
-8 -111 -38 -111 -38 -111 -66 -77 -13 16 -31 42 -40 58 -14 26 -20 28 -55 23
-42 -6 -69 10 -69 41 0 9 -14 46 -30 80 -17 35 -30 68 -30 72 0 5 11 26 25 46
20 29 25 49 25 95 0 37 -4 59 -12 62 -10 3 -7 15 10 45 12 23 22 51 22 62 0
28 -52 77 -90 85 -46 10 -56 30 -25 51 41 27 30 57 -25 69 -25 5 -63 22 -85
37 -22 14 -66 33 -97 42 -42 12 -63 24 -79 47 -20 28 -20 36 -11 98 5 37 7 81
4 96 -3 16 -34 76 -69 134 -34 57 -63 111 -63 119 0 9 5 30 12 48 23 64 -37
119 -83 78 -17 -15 -20 -26 -15 -58 7 -38 6 -38 -21 -31 -15 4 -48 9 -72 12
-25 3 -58 15 -73 26 -25 19 -33 20 -76 9 -76 -18 -179 -26 -186 -13 -14 22
-33 10 -49 -31 -16 -39 -18 -41 -30 -23 -8 10 -19 15 -25 11 -18 -11 -14 -36
4 -36 11 0 0 -17 -33 -53 -65 -68 -77 -116 -64 -244 9 -90 21 -123 61 -173 12
-15 23 -48 27 -80 3 -30 10 -61 16 -68 16 -20 80 -50 132 -62 26 -6 61 -21 79
-34 104 -78 213 -81 310 -8 28 21 60 44 72 50 34 18 66 -6 98 -75 30 -64 42
-73 103 -73 44 0 35 -18 -33 -70 -59 -47 -117 -127 -146 -204 -11 -28 -39 -71
-63 -96 -32 -34 -51 -68 -76 -135 -48 -131 -39 -125 -192 -125 -163 0 -198
-10 -245 -69 -20 -25 -53 -65 -74 -88 -29 -32 -38 -51 -38 -78 0 -43 20 -94
46 -117 24 -21 117 -48 164 -48 83 0 116 -29 101 -88 -10 -36 -54 -41 -111
-12 -67 34 -252 102 -292 107 -32 4 -38 2 -40 -13 -7 -85 -9 -119 -8 -184 0
-92 -20 -191 -51 -249 -28 -52 -58 -65 -188 -82 -132 -17 -131 -17 -185 -76
-36 -39 -72 -65 -122 -89 -83 -39 -94 -40 -152 -14 -59 27 -211 40 -457 40
-141 1 -205 4 -216 13 -23 17 -39 52 -39 82 0 37 -91 132 -139 144 -121 31
-141 33 -193 21 -96 -22 -106 -29 -134 -85 -16 -35 -39 -62 -65 -79 -21 -14
-57 -46 -80 -71 -45 -49 -66 -54 -110 -28 -24 14 -33 15 -49 5 -11 -6 -29 -12
-40 -12 -32 0 -95 -36 -123 -70 -36 -42 -50 -98 -38 -150 13 -57 35 -78 105
-98 64 -17 91 -40 180 -146 35 -42 66 -66 108 -86 33 -16 67 -35 76 -43 9 -9
43 -27 76 -41 50 -22 72 -26 161 -26 57 0 125 4 152 10 26 5 83 12 126 16 l79
6 57 58 c31 33 69 64 84 69 28 11 32 8 75 -43 19 -24 59 -19 112 13 25 16 62
32 81 36 72 16 186 58 229 86 58 36 86 74 101 136 16 67 25 80 62 100 27 14
69 16 285 17 l254 1 21 -27 c12 -14 37 -53 55 -85 61 -108 110 -148 255 -205
123 -49 128 -50 147 -33 15 13 29 16 57 12 21 -4 45 -2 53 3 13 8 13 13 -2 37
-16 27 -15 31 13 88 16 33 29 69 29 80 1 47 18 48 38 2 21 -47 63 -82 112 -93
93 -22 100 -26 167 -95 l68 -71 60 6 c33 4 77 9 98 12 33 5 43 2 68 -22 23
-22 29 -36 29 -72 0 -39 -1 -42 -16 -28 -21 21 -31 20 -37 -4 -10 -38 7 -74
39 -82 17 -4 39 -17 49 -28 15 -17 31 -20 94 -20 42 0 98 7 125 15 27 8 64 15
81 15 18 0 49 7 68 15 49 20 76 19 131 -6 61 -26 104 -19 111 19 13 65 21 76
52 86 25 7 38 5 58 -8 48 -32 24 -98 -69 -185 -45 -43 -49 -90 -12 -124 49
-45 152 -115 186 -126 50 -16 84 -45 77 -64 -3 -9 -21 -23 -40 -30 -41 -18
-77 -61 -77 -93 0 -31 33 -64 65 -64 41 0 65 33 65 89 0 43 4 52 35 80 31 27
43 31 92 31 30 0 77 8 104 17 48 17 49 17 134 -11 97 -32 151 -31 194 3 14 12
50 37 78 56 29 20 60 49 68 65 25 49 46 54 93 19 57 -42 63 -70 52 -244 -12
-184 -14 -192 -59 -215 -49 -25 -59 -38 -70 -94 -5 -26 -14 -53 -20 -59 -17
-17 -13 -62 8 -88 19 -24 35 -26 153 -18 95 7 98 -17 12 -115 -23 -27 -45 -60
-49 -73 -3 -13 -14 -32 -25 -43 -11 -11 -20 -33 -20 -48 0 -17 -10 -38 -25
-52 -28 -26 -32 -65 -10 -94 8 -11 15 -28 15 -37 0 -30 19 -32 51 -5 17 14 34
26 38 26 8 0 31 44 31 60 0 5 -14 25 -31 45 l-31 35 39 0 c52 0 117 42 168
109 58 75 85 90 165 83 36 -2 68 -10 72 -16 4 -6 5 -26 2 -43 -5 -29 -2 -35
25 -50 17 -10 31 -25 31 -34 0 -40 -124 -230 -204 -311 -20 -21 -48 -41 -61
-44 -15 -4 -35 -24 -51 -52 -15 -26 -38 -60 -51 -75 -12 -16 -23 -37 -23 -47
0 -10 -14 -32 -32 -49 -41 -40 -29 -56 35 -47 34 5 53 17 87 51 34 35 52 45
76 45 35 0 48 -12 58 -52 6 -28 29 -37 41 -18 11 18 53 10 84 -15 24 -21 31
-36 36 -83 3 -31 15 -82 25 -112 11 -30 21 -75 22 -100 3 -40 1 -45 -19 -48
-26 -4 -29 -28 -8 -56 20 -26 19 -81 -2 -117 -14 -24 -15 -32 -4 -52 11 -21 9
-28 -14 -62 -31 -47 -27 -88 12 -123 24 -22 26 -31 29 -120 7 -180 22 -246 44
-188 11 31 30 33 55 6 11 -12 31 -20 51 -20 28 0 38 7 59 38 14 21 29 59 34
85 8 45 34 87 52 87 5 0 12 -12 15 -27 4 -16 13 -40 20 -55 9 -17 10 -29 4
-33 -16 -10 -11 -44 8 -53 9 -5 48 -8 86 -6 59 2 73 6 88 26 10 13 18 35 18
49 0 33 19 42 51 24 13 -8 31 -17 39 -21 8 -4 25 -18 38 -32 18 -19 29 -23 54
-18 17 3 37 11 45 17 16 14 17 71 1 87 -17 17 -59 15 -87 -4 -22 -16 -24 -15
-45 11 -21 26 -25 27 -80 21 -61 -8 -86 2 -86 33 0 12 17 23 53 35 28 10 70
31 92 46 22 15 57 33 77 39 36 12 37 14 44 73 5 41 13 66 27 79 l20 18 -21 64
-21 64 21 63 22 62 -34 138 c-32 130 -35 138 -65 154 -19 11 -41 36 -54 62
-12 24 -25 44 -29 44 -4 0 -44 36 -90 79 -81 76 -84 78 -144 85 -157 16 -194
8 -286 -61 l-30 -23 -32 43 c-18 23 -47 51 -63 62 -17 11 -32 25 -34 31 -2 7
17 32 43 55 25 24 66 72 91 107 43 59 67 74 88 53 10 -9 36 -14 67 -12 10 0
29 19 43 41 23 36 29 40 65 40 l40 0 0 -42 c0 -36 6 -47 53 -93 38 -38 69 -59
115 -75 70 -26 99 -54 107 -109 9 -53 23 -81 40 -81 8 0 32 -15 52 -34 56 -49
101 -70 159 -70 83 -1 115 48 84 130 -9 22 -7 31 7 48 53 62 68 130 35 159
-20 19 -67 23 -77 7 -14 -22 -62 -9 -105 27 -41 35 -47 37 -117 38 -40 0 -73
3 -73 6 0 3 14 23 30 44 33 42 38 75 14 99 -19 20 -19 20 -49 0 -23 -15 -25
-15 -32 1 -8 23 30 55 66 55 33 -1 59 -15 111 -64 40 -37 42 -40 35 -83 -6
-39 -3 -49 17 -70 40 -43 57 -48 84 -22 13 12 24 32 24 43 0 40 12 63 40 79
52 31 90 14 90 -42 0 -41 22 -70 57 -77 51 -10 63 -51 38 -132 -7 -23 -6 -24
31 -22 91 6 122 0 155 -27 43 -36 86 -35 166 6 60 31 93 62 93 88 0 7 -13 27
-30 46 -27 31 -29 41 -32 119 -3 73 0 89 16 107 25 28 47 27 76 -4 17 -18 33
-25 55 -23 38 2 55 -7 55 -33 0 -14 7 -19 25 -19 16 0 25 -6 25 -15 0 -18 26
-20 33 -2 4 8 14 3 31 -16 31 -33 33 -53 7 -60 -10 -2 -29 -28 -43 -59 -19
-41 -32 -57 -52 -62 -38 -9 -32 -33 9 -40 50 -10 60 -36 46 -121 -5 -38 -8
-72 -5 -77 11 -17 25 -6 40 32 20 49 39 54 30 8 -15 -70 -16 -94 -6 -108 9
-13 12 -12 25 4 8 11 15 30 15 42 0 37 10 52 31 47 10 -3 30 2 44 11 22 15 24
21 19 56 l-7 40 56 0 c50 0 55 2 50 20 -3 11 -10 20 -15 20 -5 0 -6 5 -3 10 3
6 24 10 45 10 30 0 45 7 65 27 37 40 34 87 -7 125 -68 64 -85 112 -45 127 27
11 82 71 92 101 16 50 -42 66 -87 23 l-28 -27 0 54 0 53 24 -22 c17 -16 31
-21 46 -16 13 4 28 1 38 -8 30 -26 57 -29 82 -7 13 11 31 20 41 20 32 0 66 21
79 49 7 14 16 34 21 43 14 28 11 54 -13 103 -29 60 -19 79 47 83 38 3 52 -1
71 -19 36 -33 57 -19 49 33 -9 57 5 88 60 140 37 35 45 49 45 78 -1 36 14 161
25 211 6 28 28 39 75 38 l25 0 -24 -10 c-32 -13 -50 -38 -51 -71 0 -40 9 -57
41 -73 39 -21 64 -19 94 8 46 39 29 134 -24 138 -9 1 21 5 66 10 93 9 166 39
232 95 31 27 45 34 54 25 6 -6 28 -11 48 -11 21 0 60 -12 88 -26 42 -22 58
-25 96 -19 39 5 50 12 63 37 10 17 38 55 65 85 26 29 47 58 47 65 0 6 12 32
27 57 22 36 28 59 28 106 1 33 3 67 5 75 4 11 -7 16 -40 20 -67 9 -127 44
-134 78 -7 30 15 152 35 196 8 16 24 29 43 34 27 7 32 13 37 53 3 24 11 57 17
72 7 16 12 40 13 55 0 27 0 27 10 4 7 -19 15 -23 41 -20 27 2 33 7 33 27 0 33
-29 50 -55 33 -19 -11 -20 -10 -20 24 0 19 5 45 11 56 14 26 14 85 0 101 -18
23 28 118 84 170 53 50 66 54 105 32 27 -15 88 -19 106 -7 7 4 16 24 22 44 6
21 18 45 27 54 24 25 4 38 -54 35 -72 -3 -80 14 -74 147 6 109 18 118 28 22
12 -105 14 -110 45 -110 16 0 33 -6 37 -14 4 -7 43 -24 86 -36 l78 -23 38 21
c20 12 56 24 79 28 41 6 41 6 47 59 5 38 14 60 31 76 29 28 30 39 3 63 -17 14
-20 25 -16 58 3 22 15 50 26 62 27 29 26 33 -6 40 -21 5 -118 57 -151 81 -1 1
5 16 15 33 17 29 17 33 2 48 -26 25 -55 9 -73 -39 -12 -36 -15 -38 -15 -15 -1
15 -7 31 -15 35 -11 7 -12 19 -3 66 6 31 15 57 21 57 6 0 32 -7 58 -14 48 -15
61 -14 138 10 25 7 62 15 82 17 26 3 45 13 59 31 11 15 38 35 59 46 33 17 38
25 44 64 4 25 4 61 0 81 -6 32 -3 38 35 73 50 46 55 84 15 131 -30 36 -46 38
-94 12 -32 -17 -39 -17 -75 -4 -28 10 -59 12 -102 8 -35 -4 -76 -4 -91 0 l-29
6 44 43 c53 53 58 93 16 125 -25 20 -25 22 -8 35 21 15 16 67 -11 104 -21 30
-71 28 -66 -3 10 -71 -4 -115 -37 -115 -10 0 -41 -18 -71 -40 -29 -22 -69 -45
-89 -51 -20 -6 -54 -22 -77 -35 -53 -31 -147 -33 -203 -4 -46 23 -53 38 -35
71 19 34 17 57 -5 69 -32 16 -69 12 -81 -10 -12 -22 -36 -27 -43 -7 -2 6 5 29
16 49 17 31 19 42 9 63 -7 14 -25 33 -40 42 -28 16 -28 18 -28 102 1 69 -4 98
-23 144 -14 34 -20 62 -15 67 5 5 51 20 102 34 105 28 119 37 139 85 8 19 27
50 41 70 26 33 27 40 27 150 0 100 -3 121 -21 152 -12 19 -24 51 -28 71 -25
133 -232 159 -346 43 -47 -48 -80 -57 -102 -27 -7 9 -21 23 -31 31 -15 12 -20
11 -41 -8 -21 -20 -25 -21 -52 -7 -16 8 -37 17 -47 20 -29 9 -77 95 -77 140 0
66 -17 110 -49 129 -16 9 -35 17 -42 17 -6 0 -26 11 -43 23 -17 13 -48 30 -69
36 -54 18 -71 48 -63 115 5 39 16 66 37 92 29 37 35 62 30 140 -2 30 2 43 13
47 23 9 20 30 -8 56 -31 29 -42 90 -24 128 10 20 26 31 61 41 43 12 48 16 42
35 -4 12 -8 36 -9 52 -1 24 3 31 22 33 13 2 34 -4 47 -12 29 -19 59 -21 72 -3
6 6 13 41 16 76 6 72 18 89 94 130 37 20 60 45 105 112 31 47 81 107 111 132
30 26 76 79 103 119 26 40 64 98 84 128 60 90 111 200 127 275 8 39 26 90 41
114 15 24 33 53 40 65 8 12 11 39 8 66 -3 36 -11 51 -45 82 -22 21 -50 38 -62
38 -26 0 -77 -52 -139 -139 -27 -39 -67 -78 -101 -102 -72 -49 -154 -140 -185
-204 -13 -27 -24 -55 -24 -61 0 -6 -10 -19 -21 -30 -12 -10 -37 -43 -57 -73
-19 -29 -54 -72 -77 -95 -28 -27 -51 -61 -65 -99 -17 -44 -31 -64 -60 -83 -41
-27 -163 -64 -211 -64 -15 0 -30 -4 -34 -9 -9 -15 -91 -58 -145 -76 -41 -14
-60 -15 -92 -7 -27 7 -48 7 -59 1 -47 -24 -129 2 -188 61 -17 18 -47 65 -67
107 -36 74 -36 75 -16 89 47 33 82 136 66 197 -5 21 -18 30 -70 47 -48 16 -71
31 -90 56 -15 19 -30 34 -35 34 -5 0 -9 -22 -9 -49 0 -56 -19 -82 -45 -61 -8
7 -15 20 -15 30 0 21 -23 33 -37 19 -6 -6 -18 0 -33 16 -25 26 -49 32 -66 15
-9 -9 -125 -16 -149 -9 -5 1 -34 -3 -63 -9 -66 -15 -129 -15 -137 -1 -4 6 7
39 24 74 24 47 39 66 61 73 17 6 40 28 56 54 33 52 40 58 81 58 24 0 37 -7 53
-30 23 -32 65 -41 88 -18 18 18 16 24 -28 67 -26 26 -40 48 -40 66 0 14 -11
37 -25 51 -28 28 -54 26 -91 -7 -29 -27 -42 -24 -59 17 -14 33 -18 36 -47 31
-18 -2 -42 -1 -53 3 -29 11 -123 111 -158 166 -15 25 -42 53 -59 62 -75 41
-77 45 -87 184 -9 137 -21 169 -68 191 -34 15 -49 -6 -58 -86 -11 -96 -40
-138 -103 -152 -45 -9 -58 -35 -71 -141 -15 -112 -6 -156 44 -204 19 -19 35
-42 35 -51 0 -15 -4 -16 -30 -6 -38 14 -64 1 -68 -36 -3 -21 8 -34 56 -74 68
-55 109 -111 118 -162 4 -20 10 -40 14 -46 5 -5 11 -26 15 -46 10 -54 -23
-109 -65 -109 -4 0 -6 18 -3 40 5 34 2 43 -25 70 -17 16 -38 30 -46 30 -30 0
-51 -38 -56 -103 -5 -57 -7 -63 -35 -76 -55 -25 -75 -51 -75 -97 0 -37 5 -46
44 -80 28 -25 46 -50 49 -69 5 -29 4 -30 -65 -53 l-70 -22 -31 26 c-20 17 -37
24 -51 20 -12 -3 -24 -6 -29 -6 -4 0 -12 -11 -17 -24 -17 -47 -153 -71 -196
-35 -9 7 -14 32 -14 70 0 49 -3 60 -21 70 -12 6 -35 8 -50 5 -22 -4 -34 0 -46
14 -10 11 -24 20 -31 20 -8 0 -27 14 -43 31 -27 29 -35 32 -87 31 l-57 0 30
21 c61 45 65 52 65 130 0 82 -4 89 -72 137 -27 18 -48 39 -48 47 0 23 -39 53
-69 53 -19 0 -34 8 -45 25 -23 35 -20 52 14 70 32 17 50 43 50 74 0 11 11 28
25 37 33 22 32 55 -4 96 -15 18 -36 49 -46 68 -9 19 -27 46 -39 58 -18 21 -21
36 -21 124 0 85 -3 102 -18 113 -21 15 -53 8 -104 -21 -30 -17 -35 -18 -60 -4
-22 12 -29 24 -31 54 l-3 38 54 -6 55 -7 30 43 c17 24 48 60 70 80 48 44 54
52 46 72 -8 20 -53 21 -60 1 -9 -23 -24 -7 -24 24 0 36 30 74 80 102 21 12 46
36 56 54 16 30 20 32 56 28 38 -6 38 -6 38 30 0 66 -80 92 -118 40 l-21 -28
-36 19 c-32 18 -75 63 -75 80 0 12 28 6 40 -9 7 -8 25 -15 41 -15 25 0 28 4
31 37 3 33 7 39 33 43 23 4 30 10 30 29 0 32 -28 50 -54 34 -22 -14 -31 -8
-31 23 0 33 -39 94 -67 105 -35 13 -76 11 -99 -6 -24 -16 -34 -11 -34 17 0 24
-110 133 -144 142 -19 5 -26 13 -26 31 0 13 5 27 10 30 14 8 13 78 -2 112 -6
15 -15 98 -18 183 -6 129 -10 163 -28 200 -26 54 -28 100 -6 141 8 17 14 45
12 62 -2 26 -8 33 -30 35 -20 2 -28 -2 -33 -20 -4 -13 -16 -35 -26 -49 -13
-19 -19 -48 -21 -105 -3 -77 -17 -101 -29 -52 -7 28 -43 27 -75 -3 -19 -17
-22 -18 -34 -4 -17 21 -5 60 34 109 45 55 66 99 66 135 0 80 42 108 128 86 97
-26 137 -4 148 79 6 39 3 52 -15 76 -25 35 -26 43 -6 60 8 7 15 21 15 31 0 31
-37 23 -55 -11 -17 -34 -49 -39 -93 -16 -15 7 -40 17 -56 22 -46 14 -71 56
-70 120 0 42 5 59 23 78 24 26 23 56 -2 56 -8 0 -20 -7 -27 -15 -16 -19 -60
-20 -60 -1 0 7 7 19 15 26 13 11 22 50 11 50 -2 0 -28 -11 -59 -25 -62 -27
-73 -46 -58 -102 23 -93 21 -191 -4 -200 -10 -3 -28 40 -46 112 -15 58 -32 79
-83 104 -25 11 -46 24 -46 27 0 3 10 14 22 23 l21 18 -36 6 c-21 3 -51 15 -67
27 -17 12 -37 19 -45 16 -15 -5 -83 34 -97 57 -4 7 -8 24 -8 39 0 70 -37 79
-72 16z m170 -1854 c5 -9 27 -20 48 -23 53 -8 56 -35 10 -80 -35 -34 -35 -34
-73 -19 -54 22 -60 37 -37 92 20 48 37 58 52 30z m523 -437 c26 -16 24 -42 -6
-55 -29 -13 -31 -26 -10 -76 10 -24 24 -38 43 -43 15 -3 41 -15 57 -25 17 -10
42 -18 57 -18 42 0 44 -19 4 -52 -20 -16 -36 -38 -36 -48 0 -28 -11 -50 -24
-49 -19 0 -106 148 -117 199 -8 39 -15 49 -36 54 -19 5 -23 11 -17 24 5 9 8
34 7 55 -1 27 6 45 25 68 l27 30 3 -26 c2 -14 12 -31 23 -38z m334 -841 c0
-32 -30 -43 -55 -21 -39 35 -47 -12 -24 -133 6 -30 2 -37 -45 -82 -67 -66 -99
-68 -137 -9 -22 36 -29 40 -52 35 -51 -12 -57 -11 -60 11 -5 31 27 45 76 35
46 -11 68 -3 106 36 25 27 28 37 23 71 -6 49 3 58 74 70 74 12 94 10 94 -13z
m1896 -486 c28 -15 24 -31 -18 -72 -46 -44 -125 -82 -154 -75 -14 4 -28 -2
-44 -19 -30 -33 -35 -31 -35 15 0 22 -4 43 -10 46 -18 11 -11 31 25 71 25 28
34 34 35 22 0 -25 36 -23 43 2 4 17 14 20 72 20 36 0 75 -5 86 -10z m140 -31
c15 -8 34 -7 70 2 57 15 68 9 48 -27 -12 -23 -12 -27 6 -40 38 -26 45 -35 45
-59 0 -43 -25 -57 -91 -49 -55 6 -59 5 -68 -17 -6 -17 -5 -30 4 -45 17 -26 11
-34 -25 -34 -104 0 -149 90 -99 200 35 77 63 95 110 69z m2375 -3008 c-2 -58
-16 -91 -42 -91 -21 0 -27 -20 -11 -38 8 -9 17 -30 20 -47 3 -16 13 -51 22
-77 20 -56 15 -78 -19 -78 -21 0 -26 6 -31 38 -4 20 -13 54 -21 75 -8 20 -14
51 -14 67 0 19 -10 40 -30 60 -37 38 -37 49 -2 83 22 21 101 64 123 66 3 1 5
-25 5 -58z m-6283 -732 c3 -23 17 -64 31 -91 16 -30 26 -66 26 -91 0 -85 32
-169 95 -251 l36 -47 -28 3 c-20 2 -32 12 -42 33 -42 91 -85 97 -166 21 -32
-29 -74 -59 -95 -65 -24 -7 -41 -20 -49 -38 -39 -87 -46 -87 -152 2 -40 33
-83 69 -96 80 -15 13 -25 34 -28 60 -3 22 -3 34 1 28 3 -7 18 -13 34 -13 28 0
41 14 33 38 -3 6 -17 12 -33 12 -16 0 -30 -6 -33 -12 -8 -22 -20 20 -13 46 5
19 20 30 64 46 67 25 92 45 92 74 1 64 22 83 120 106 32 8 82 31 120 57 36 23
68 43 71 43 4 0 9 -19 12 -41z"/>
<path id="rect4" d="M897 14025 c-160 -57 -154 -272 9 -325 43 -15 114 -7 153 16 46 27
81 91 81 146 0 77 -38 131 -112 163 -45 18 -81 19 -131 0z"/>
<path id="rect5" d="M7008 13912 c-68 -75 -58 -131 36 -202 55 -41 109 -53 119 -26 3 7
23 18 44 23 l38 9 -3 58 c-4 90 -70 164 -155 173 -40 5 -45 2 -79 -35z"/>
<path id="rect6.1" d="M4105 13520 c-3 -5 -18 -10 -32 -10 -33 0 -93 -45 -93 -70 0 -11 -9
-43 -21 -72 -24 -61 -21 -130 7 -174 17 -24 174 -134 193 -134 5 0 23 -22 41
-50 36 -56 50 -63 50 -25 0 18 7 28 25 35 14 5 27 20 31 35 6 26 29 36 74 32
24 -2 25 1 26 53 1 30 7 90 14 133 l12 77 -32 36 c-22 26 -28 40 -21 47 6 6
11 19 11 29 0 14 -8 18 -42 18 -24 0 -70 12 -103 25 -62 26 -129 33 -140 15z"/>
<path id="rect7" d="M13590 13502 c-42 -21 -69 -71 -70 -131 -1 -94 -49 -303 -86 -371
-13 -25 -33 -71 -44 -103 -10 -32 -27 -70 -38 -85 -10 -15 -26 -46 -37 -69
-16 -38 -22 -43 -52 -43 -26 0 -33 -4 -33 -19 0 -10 7 -21 15 -25 19 -7 19
-29 0 -67 -23 -44 -48 -205 -42 -269 5 -43 12 -60 33 -78 22 -19 29 -21 39
-10 23 24 95 152 95 168 0 8 13 42 30 75 16 33 30 74 30 90 0 17 9 45 20 63
11 17 19 42 18 55 -1 12 8 51 20 87 43 134 101 327 117 390 23 89 36 106 103
130 70 26 97 62 87 113 -9 40 -32 67 -58 67 -10 0 -28 11 -39 25 -23 30 -58
32 -108 7z"/>
<path id="rect8" d="M10501 13443 c-12 -10 -28 -36 -35 -58 -12 -34 -19 -40 -46 -43 -59
-6 -47 -63 14 -61 17 1 56 -8 86 -18 55 -20 58 -24 76 -90 4 -15 40 -17 49 -3
3 5 9 33 12 61 7 63 30 89 78 89 24 0 45 -9 68 -30 19 -16 44 -30 55 -30 25 0
88 53 97 81 9 29 -13 76 -38 83 -33 9 -80 7 -97 -4 -10 -6 -20 -3 -33 11 -21
23 -62 25 -83 4 -13 -13 -21 -12 -65 5 -62 25 -110 25 -138 3z"/>
<path d="M3595 13187 c-29 -29 -35 -42 -35 -76 0 -37 6 -48 50 -91 45 -46 53
-50 98 -50 41 0 52 4 79 33 31 33 73 112 73 138 0 33 -30 57 -77 63 -153 21
-150 21 -188 -17z"/>
<path d="M15386 13118 c-38 -61 -25 -163 26 -199 27 -19 28 -25 22 -64 -9 -65
1 -87 39 -83 31 3 32 5 37 55 6 60 8 63 52 72 32 7 33 8 36 64 2 44 -2 66 -18
95 -40 72 -162 109 -194 60z"/>
<path d="M4370 12969 c-43 -18 -121 -110 -127 -149 -8 -57 38 -153 103 -214
33 -32 54 -60 54 -74 0 -20 -39 -131 -61 -174 -5 -10 -9 -37 -9 -60 0 -33 -9
-56 -39 -98 -41 -60 -60 -70 -85 -45 -36 37 -14 99 39 109 42 8 61 40 51 83
-5 17 -49 69 -118 135 -122 119 -134 124 -262 116 -53 -3 -69 -9 -104 -37 -59
-46 -82 -83 -89 -140 -7 -64 12 -135 49 -183 16 -20 65 -58 111 -84 72 -42 88
-47 132 -45 99 6 113 4 139 -12 25 -17 26 -20 20 -85 -5 -62 -3 -72 28 -132
21 -42 45 -73 68 -88 19 -12 40 -37 46 -54 13 -37 34 -49 34 -20 0 33 11 52
31 52 17 0 18 -7 16 -71 -2 -66 0 -72 26 -95 15 -13 36 -24 47 -24 10 0 31 -8
48 -17 16 -9 36 -14 47 -10 15 6 17 16 13 76 -5 62 -9 74 -43 115 -39 48 -36
56 15 53 23 -2 26 2 30 44 8 66 24 82 74 75 109 -16 158 -18 169 -7 6 6 20 11
31 11 10 0 40 13 66 30 41 26 50 28 77 18 45 -17 63 -6 63 39 0 60 19 87 64
93 22 3 41 10 43 16 2 6 -10 25 -27 42 -19 20 -30 42 -30 60 0 15 -9 44 -20
65 -27 50 -25 63 10 99 28 28 32 29 53 16 51 -33 92 -26 99 17 3 18 -4 20 -87
25 -49 3 -97 9 -105 14 -36 23 -167 126 -190 151 -23 25 -29 26 -82 20 -51 -6
-59 -5 -64 12 -4 10 -16 25 -27 34 -21 17 -19 28 8 64 14 19 12 25 -28 78 -64
85 -134 143 -182 150 -22 3 -53 8 -70 11 -16 3 -41 1 -55 -5z"/>
<path  id="rect2" d="M2510 12940 c-32 -45 -70 -61 -124 -54 -35 5 -57 2 -95 -15 -38 -16
-70 -21 -133 -21 -57 0 -90 -5 -104 -15 -12 -8 -49 -19 -84 -24 -69 -11 -104
-36 -115 -79 -3 -15 -19 -44 -36 -64 -16 -20 -29 -48 -29 -61 0 -13 -5 -38
-11 -55 -7 -22 -8 -69 -1 -158 6 -70 8 -133 5 -140 -2 -7 -14 -14 -25 -17 -31
-8 -17 -29 35 -55 29 -14 47 -29 47 -39 0 -17 -30 -51 -134 -154 -48 -47 -49
-49 -56 -129 -5 -52 -13 -86 -24 -98 -21 -24 -20 -39 3 -52 30 -15 47 -12 79
15 24 20 31 36 37 82 6 46 13 63 40 90 19 19 36 46 40 62 3 16 15 37 25 46 16
15 26 15 77 5 32 -6 67 -13 79 -16 28 -5 59 -76 58 -130 -1 -26 -11 -59 -28
-89 -52 -88 -6 -103 66 -23 39 44 49 50 58 38 5 -8 10 -24 10 -36 0 -11 10
-30 23 -41 19 -17 40 -21 146 -26 119 -6 127 -8 211 -48 l88 -41 30 22 c39 29
122 40 122 17 0 -21 -30 -37 -68 -37 -45 0 -90 -19 -97 -41 -8 -24 -43 -39
-89 -39 -37 0 -50 -11 -60 -53 -4 -16 -17 -33 -32 -39 -13 -6 -27 -21 -29 -32
-3 -12 -10 -43 -15 -70 -14 -62 -30 -92 -74 -138 -28 -29 -36 -45 -36 -74 0
-21 7 -46 16 -56 17 -18 18 -25 13 -133 -2 -62 13 -108 46 -135 13 -11 20 -10
45 8 16 12 44 22 62 22 28 0 44 -12 116 -86 l82 -87 41 12 c23 7 45 9 49 4 4
-4 17 -34 29 -65 25 -63 43 -83 66 -74 14 5 14 9 0 42 -20 48 -19 93 1 101 21
8 39 -13 61 -72 14 -38 24 -51 41 -53 22 -3 23 -1 16 33 -5 29 -3 39 12 50 28
22 59 18 134 -15 38 -16 73 -30 79 -30 13 0 84 76 92 99 6 15 -14 79 -40 131
-5 8 -24 16 -45 18 -46 4 -61 31 -70 131 -6 73 -6 73 25 100 77 65 79 68 79
117 0 37 -6 53 -30 81 -51 57 -32 129 24 93 11 -8 46 -29 76 -47 30 -18 85
-63 122 -98 68 -65 100 -79 126 -53 7 7 12 20 12 29 0 25 -69 79 -102 79 -21
0 -40 13 -75 52 -27 29 -92 96 -145 149 -54 53 -98 103 -98 112 0 8 -11 29
-25 45 -13 16 -22 32 -18 36 3 3 30 6 59 6 48 0 59 -5 116 -48 43 -33 66 -59
73 -80 7 -26 17 -34 48 -43 28 -7 43 -7 51 1 12 12 -114 140 -208 209 -52 38
-56 45 -56 81 0 27 -4 40 -14 40 -18 0 -96 -85 -96 -105 0 -8 -9 -15 -21 -15
-17 0 -19 4 -13 23 12 41 36 82 70 119 18 21 45 60 58 87 27 52 61 70 106 56
34 -11 70 20 70 59 0 30 -4 36 -34 46 -51 16 -63 37 -96 154 -17 59 -36 120
-44 134 -18 36 -6 73 38 122 20 22 36 47 36 56 0 9 -17 33 -38 53 -21 20 -44
48 -50 64 -21 49 -92 23 -92 -35 0 -44 -148 -24 -210 29 -50 41 -70 118 -54
210 6 36 4 42 -16 53 -21 11 -39 11 -125 -6 -22 -4 -40 1 -68 20 -49 33 -61
33 -87 -4z m577 -1398 c36 -40 49 -73 39 -98 -8 -21 -58 -11 -108 21 -28 19
-38 33 -43 65 -7 44 -17 48 -61 25 -33 -17 -82 -19 -104 -5 -13 8 -13 10 2 10
18 0 47 12 86 34 20 12 34 11 90 -1 55 -12 73 -21 99 -51z"/>
<path id="rect6" d="M5817 12855 c-15 -14 -46 -28 -68 -31 -22 -4 -56 -20 -76 -35 -20
-16 -41 -29 -47 -29 -26 -1 -39 -21 -47 -71 -6 -35 -19 -65 -39 -90 -34 -43
-37 -57 -14 -73 35 -26 69 -176 45 -202 -9 -9 -15 -37 -12 -61 1 -7 21 -11 55
-11 42 1 53 4 49 14 -3 8 -9 14 -14 14 -5 0 -9 5 -9 10 0 6 9 10 20 10 17 0
20 -7 20 -40 0 -42 2 -43 58 -40 39 2 92 -31 116 -71 20 -33 22 -59 4 -41 -19
19 -36 14 -40 -10 -2 -12 -18 -30 -36 -41 -28 -17 -37 -17 -80 -7 -43 11 -52
11 -87 -8 -49 -25 -130 -108 -140 -142 -4 -14 -18 -42 -33 -63 -25 -37 -25
-38 -13 -138 15 -120 46 -209 109 -306 l47 -72 53 -1 c77 0 82 -31 21 -123
-23 -35 -29 -54 -25 -73 4 -13 2 -41 -4 -62 -10 -32 -8 -44 13 -92 14 -30 39
-68 57 -84 31 -27 32 -30 26 -86 -8 -69 5 -84 36 -45 19 25 26 27 71 22 44 -4
55 -10 86 -46 41 -47 74 -54 92 -18 16 30 30 37 50 26 10 -5 26 -9 37 -9 11 0
31 -15 45 -33 24 -32 134 -107 156 -107 27 0 6 41 -49 93 -56 52 -60 59 -60
100 0 58 23 80 81 75 51 -4 58 9 23 47 -18 20 -24 34 -19 49 18 55 17 75 -4
92 -25 22 -27 50 -5 103 20 50 38 57 80 30 30 -18 34 -25 34 -65 0 -50 20 -60
38 -19 15 33 26 32 51 -9 12 -19 28 -37 37 -40 9 -3 53 -3 99 0 l84 7 6 37 c7
43 46 84 88 94 36 9 34 24 -6 41 -100 42 -57 108 59 90 34 -5 44 -3 44 7 0 26
-24 38 -76 38 -58 0 -84 7 -84 22 0 6 11 7 25 4 42 -11 32 28 -14 56 -21 13
-67 44 -101 71 -71 54 -105 60 -137 23 -18 -20 -27 -23 -67 -19 -33 4 -46 2
-46 -7 0 -7 -15 -27 -33 -44 -18 -17 -39 -46 -46 -63 -12 -28 -18 -33 -48 -33
-27 0 -34 -4 -31 -17 2 -13 16 -20 43 -23 35 -4 40 -8 46 -39 9 -44 2 -61 -26
-61 -12 0 -28 -7 -35 -15 -19 -23 -46 -18 -70 13 -29 36 -24 118 10 164 22 29
22 32 6 65 -9 18 -16 39 -16 47 0 15 41 56 57 56 5 0 18 9 28 20 26 29 12 61
-41 94 -44 28 -84 77 -84 103 0 7 11 29 25 49 35 51 34 90 -2 97 -16 3 -39 3
-53 1 -21 -4 -35 6 -84 61 -55 63 -57 67 -42 84 27 30 87 41 121 23 23 -12 35
-12 60 -3 44 16 59 14 80 -9 19 -21 105 -44 145 -39 18 3 26 11 28 29 8 69 27
100 63 100 26 0 25 -32 -2 -56 -39 -36 -48 -66 -46 -161 3 -105 16 -131 102
-211 33 -31 55 -60 55 -72 0 -32 18 -60 40 -60 10 0 53 -18 95 -41 106 -56
207 -66 249 -23 27 27 19 61 -24 101 -37 35 -40 42 -40 91 0 59 25 94 80 114
39 13 38 32 -5 79 -19 21 -44 57 -56 81 -29 58 -85 126 -123 149 -22 14 -50
19 -99 19 -88 0 -126 17 -157 70 -14 23 -34 50 -44 59 -48 41 -56 53 -56 81 0
17 7 45 16 61 18 35 6 59 -30 59 -11 0 -41 14 -66 31 -25 16 -63 39 -85 51
-22 11 -47 29 -56 40 -9 11 -27 22 -40 23 -13 1 -27 3 -31 4 -5 0 -8 10 -8 20
0 11 -8 26 -18 33 -10 7 -27 26 -37 41 -23 36 -56 52 -128 66 -60 11 -95 26
-112 47 -8 10 -16 8 -38 -11z"/>
<path id="rect9" d="M15459 12737 c-34 -27 -128 -151 -134 -177 -3 -15 -32 -59 -65 -97
-32 -39 -59 -76 -60 -84 -9 -62 21 -50 83 34 30 39 82 101 115 137 68 75 117
167 100 187 -13 16 -19 16 -39 0z"/>
<path id="rect10" d="M10908 12643 c-22 -5 -32 -37 -19 -62 12 -21 15 -104 5 -114 -3 -3
-19 -1 -35 5 -25 9 -29 15 -29 48 0 44 -23 70 -48 53 -10 -5 -17 -14 -18 -19
0 -5 -16 -25 -35 -45 -34 -35 -59 -94 -59 -137 0 -33 -31 -44 -64 -23 -37 24
-124 22 -139 -4 -8 -15 -4 -23 22 -44 21 -17 31 -35 31 -53 0 -46 10 -58 49
-58 20 0 55 -11 78 -24 24 -14 64 -28 90 -32 27 -3 51 -8 55 -11 12 -6 -20
-49 -59 -79 -42 -32 -80 -34 -102 -5 -15 19 -18 20 -45 6 -16 -9 -37 -13 -45
-10 -12 5 -8 12 17 37 35 32 38 54 9 72 -15 9 -22 6 -41 -17 -15 -19 -31 -28
-47 -26 -65 6 -82 -21 -55 -86 25 -59 22 -64 -41 -67 -51 -3 -58 -6 -73 -33
-11 -20 -26 -31 -43 -33 -28 -3 -38 -34 -16 -48 8 -4 9 -28 5 -72 -8 -72 -17
-96 -53 -129 -38 -37 -24 -102 28 -124 33 -13 35 -19 14 -59 -8 -15 -18 -53
-21 -84 -6 -52 -5 -57 23 -85 33 -32 96 -50 122 -34 9 6 29 33 46 61 28 50 31
52 69 49 53 -3 57 18 17 77 -17 25 -31 52 -31 62 0 9 16 48 35 85 30 59 35 79
35 137 0 72 16 102 53 102 9 0 40 28 68 63 75 90 82 93 168 77 93 -17 118 -7
127 51 8 49 27 59 67 35 36 -20 105 -31 141 -22 14 3 33 18 42 32 26 40 6 91
-61 152 -62 57 -67 79 -35 142 25 49 25 72 2 93 -24 22 -38 21 -73 -4 l-29
-20 0 40 c0 41 -14 53 -37 30 -16 -16 -26 53 -12 84 6 14 9 32 6 41 -8 19 -37
34 -59 29z"/>
<path id="rect11" d="M7746 12554 c-12 -32 -5 -61 19 -84 23 -21 25 -31 25 -107 0 -79 -2
-85 -30 -115 -16 -17 -30 -34 -30 -39 0 -15 30 -37 64 -49 23 -7 39 -21 48
-41 15 -34 19 -34 60 -13 28 15 31 14 49 -5 15 -16 27 -19 46 -15 20 5 30 2
43 -16 l17 -23 45 44 c57 56 65 87 37 143 -17 35 -19 47 -10 65 7 12 9 26 5
32 -6 11 -53 8 -100 -6 -16 -5 -29 2 -53 27 -40 43 -39 56 7 60 29 2 38 7 40
25 3 17 -8 28 -50 52 -29 17 -76 38 -105 46 -29 8 -55 20 -58 25 -10 16 -62
12 -69 -6z"/>
<path d="M13630 12510 c-19 -5 -47 -22 -62 -39 -56 -63 -24 -156 62 -182 52
-16 124 9 145 51 41 79 -1 155 -95 175 -8 1 -31 -1 -50 -5z"/>
<path d="M6999 12089 c-47 -50 -34 -113 33 -166 44 -36 82 -42 126 -19 73 38
85 96 31 152 -70 73 -141 86 -190 33z"/>
<path d="M14313 11733 c-34 -7 -69 -48 -92 -113 -34 -94 -53 -109 -139 -119
-46 -4 -77 -13 -83 -22 -20 -31 -20 -60 0 -102 12 -24 21 -53 21 -64 0 -29
-35 -69 -108 -123 -34 -25 -64 -52 -67 -60 -18 -43 -62 -233 -58 -250 12 -47
93 -36 159 20 25 22 51 40 59 40 7 0 30 15 49 34 26 24 36 42 36 63 0 37 26
126 52 178 26 50 69 110 135 187 70 80 103 152 109 236 3 37 1 72 -3 78 -10
15 -42 22 -70 17z"/>
<path d="M3925 11471 c-11 -5 -33 -23 -50 -40 -25 -27 -29 -39 -29 -84 2 -92
42 -140 141 -168 40 -11 49 -10 80 7 20 10 42 29 51 41 19 31 18 122 -2 162
-31 59 -138 104 -191 82z"/>
<path d="M12497 11459 c-26 -13 -48 -18 -66 -14 -30 6 -66 -22 -88 -67 -6 -13
-26 -53 -44 -90 -33 -67 -33 -68 -16 -103 9 -20 17 -41 17 -48 0 -7 25 -37 55
-67 l56 -55 67 0 c52 0 79 6 122 27 30 14 68 29 83 33 65 14 110 111 88 187
-12 38 -11 42 13 67 36 38 33 57 -8 65 -22 4 -45 19 -63 41 -26 31 -33 34
-103 39 -64 5 -81 3 -113 -15z"/>
<path d="M5040 11431 c-58 -9 -89 -26 -100 -57 -17 -43 -11 -140 11 -201 37
-103 36 -103 93 -103 34 0 67 -8 100 -25 61 -31 84 -32 88 -4 2 12 12 27 23
33 27 15 35 27 35 53 0 13 13 31 30 43 34 24 39 56 12 65 -21 6 -42 64 -42
112 0 27 -6 32 -77 61 -79 33 -93 34 -173 23z"/>
<path d="M14845 11122 c-11 -4 -36 -15 -55 -25 -19 -9 -55 -21 -79 -27 -53
-14 -68 -30 -138 -147 -58 -99 -83 -168 -84 -230 -1 -105 3 -173 12 -178 5 -4
9 -15 9 -26 0 -42 53 -121 137 -206 l88 -88 90 -20 c117 -25 301 -25 360 0 56
24 151 109 183 164 14 25 37 61 49 80 13 19 23 46 23 62 0 42 16 76 55 114 41
42 44 72 11 112 -13 15 -27 43 -31 61 -4 19 -19 48 -34 65 -15 18 -39 49 -54
69 -34 47 -141 155 -187 190 -34 26 -42 27 -185 32 -83 3 -159 2 -170 -2z"/>
<path d="M1233 10775 c-42 -18 -73 -69 -73 -120 1 -79 51 -125 139 -125 47 0
57 4 87 34 43 43 50 114 18 164 -36 55 -107 75 -171 47z"/>
<path d="M3325 10393 c-77 -39 -105 -70 -105 -115 0 -22 -5 -59 -11 -83 -11
-44 -10 -46 44 -137 67 -113 89 -134 147 -143 67 -11 71 -17 64 -95 -7 -72 0
-91 55 -149 14 -15 39 -44 54 -64 24 -31 34 -37 67 -37 30 0 43 -6 59 -26 28
-35 52 -27 68 23 13 39 42 72 89 99 18 10 18 13 1 65 -9 30 -19 70 -22 90 -4
28 -19 50 -63 92 -53 50 -64 56 -115 62 -32 4 -60 11 -62 16 -6 9 30 49 44 49
6 0 13 -4 16 -10 3 -5 12 -10 19 -10 11 0 13 19 10 82 -4 74 -8 87 -34 120
-18 22 -30 49 -30 67 0 44 -8 58 -46 82 -31 19 -147 50 -184 49 -8 -1 -37 -12
-65 -27z"/>
<path d="M8158 10379 c-21 -12 -24 -72 -8 -131 12 -42 44 -58 119 -58 30 0 55
-7 71 -20 33 -26 70 -26 70 -1 0 10 -6 24 -14 30 -8 6 -19 31 -25 55 -14 55
-63 100 -133 121 -60 18 -58 17 -80 4z"/>
<path d="M4799 10185 c-31 -17 -49 -61 -49 -121 0 -94 43 -134 149 -142 82 -5
111 7 111 47 0 16 7 34 15 41 23 19 18 50 -16 103 -46 74 -144 108 -210 72z"/>
<path d="M5830 9775 c-7 -8 -19 -15 -27 -15 -23 0 -97 -55 -127 -95 -24 -30
-27 -44 -23 -76 3 -25 0 -51 -10 -70 -15 -29 -14 -32 10 -57 14 -15 34 -46 46
-68 46 -93 150 -154 280 -163 80 -6 91 -10 156 -52 39 -24 89 -53 113 -64 25
-11 49 -30 57 -46 21 -40 95 -99 124 -99 26 0 40 -7 102 -48 46 -31 94 -27 94
8 0 18 -8 29 -30 39 -16 7 -46 28 -65 46 -19 18 -97 64 -172 103 -190 98 -198
105 -198 161 0 53 28 107 64 120 26 11 36 30 36 72 0 44 -23 81 -84 135 -30
27 -64 67 -77 89 -40 70 -45 74 -111 74 -33 0 -65 4 -71 10 -16 16 -73 13 -87
-4z"/>
<path d="M4007 9696 c-49 -27 -82 -97 -90 -188 -5 -55 -3 -70 10 -80 8 -7 34
-32 57 -54 44 -45 130 -95 161 -95 57 1 137 15 140 25 2 6 6 23 9 39 4 17 13
27 25 27 50 0 48 77 -4 180 -14 27 -25 55 -25 62 -1 18 -41 64 -65 72 -11 4
-38 10 -59 12 -22 3 -47 9 -57 15 -27 14 -60 9 -102 -15z"/>
<path d="M1685 9538 c-46 -16 -61 -34 -79 -96 -9 -31 -23 -70 -31 -85 -8 -16
-15 -34 -15 -40 1 -33 52 -113 108 -171 54 -55 71 -66 114 -76 60 -12 105 -1
156 39 50 40 82 92 92 154 8 49 6 64 -15 116 -33 84 -59 118 -116 146 -38 20
-63 25 -116 24 -37 0 -81 -5 -98 -11z"/>
<path d="M7861 9265 c-14 -24 -28 -35 -44 -35 -39 0 -47 -18 -47 -103 0 -77 1
-80 33 -111 18 -17 43 -45 55 -63 30 -42 58 -50 85 -25 12 11 34 24 49 27 33
8 38 15 77 89 39 73 39 94 4 102 -16 4 -41 19 -58 34 -16 15 -40 33 -53 39
-12 7 -29 27 -37 46 -18 44 -38 44 -64 0z"/>
<path d="M7453 9008 c-6 -7 -18 -36 -27 -65 -16 -49 -19 -52 -45 -47 -47 10
-44 -13 6 -51 53 -41 91 -91 99 -135 10 -46 40 -38 110 28 52 49 62 63 68 102
11 81 -17 139 -83 166 -41 17 -115 18 -128 2z"/>
<path d="M14298 8834 c-69 -44 -88 -61 -88 -79 0 -29 40 -62 85 -71 39 -7 157
20 195 44 14 9 49 19 79 23 65 9 103 35 115 77 14 51 -6 66 -74 57 -67 -9 -99
-9 -170 -1 -54 6 -57 5 -142 -50z"/>
<path d="M3403 8820 c-29 -10 -86 -24 -128 -30 -71 -11 -114 -26 -242 -86 -69
-32 -150 -113 -159 -158 -9 -52 10 -182 40 -261 14 -38 26 -78 26 -89 0 -10
15 -32 34 -50 18 -17 54 -60 79 -95 25 -35 55 -70 66 -78 12 -8 30 -32 41 -54
22 -41 72 -81 130 -100 19 -7 56 -30 83 -52 57 -47 83 -45 111 8 11 19 34 45
52 56 33 20 46 48 58 120 9 54 40 88 87 95 58 10 71 26 63 84 -5 40 -3 51 15
69 12 12 34 21 50 21 73 0 82 36 21 75 -41 26 -57 53 -67 112 -5 28 -2 34 21
43 49 18 30 73 -42 124 -40 27 -95 118 -122 199 -14 43 -30 52 -111 61 -39 4
-68 0 -106 -14z"/>
<path d="M18350 8810 c-81 -10 -135 -34 -196 -86 -61 -53 -78 -93 -76 -187 2
-73 17 -101 84 -158 71 -61 134 -80 203 -62 28 7 68 13 90 13 60 0 85 10 85
31 0 11 10 23 23 28 35 14 65 50 114 134 54 92 64 150 34 184 -16 19 -146 66
-291 106 -8 2 -40 1 -70 -3z"/>
<path d="M17260 8773 c-8 -3 -27 -17 -41 -30 -21 -19 -44 -27 -105 -34 -60 -8
-85 -16 -113 -38 -54 -41 -66 -43 -120 -15 l-50 26 -68 -22 c-37 -13 -81 -30
-96 -39 -61 -35 -83 -113 -53 -185 17 -40 6 -56 -36 -56 -16 0 -50 -11 -76
-24 -26 -13 -65 -29 -87 -35 -22 -6 -66 -33 -98 -59 -32 -27 -76 -58 -98 -67
-34 -16 -40 -24 -46 -58 -8 -52 -50 -98 -117 -130 -29 -14 -62 -38 -73 -54
-27 -38 -53 -108 -53 -141 0 -15 -11 -45 -25 -67 -68 -111 -93 -200 -73 -260
20 -59 52 -77 140 -78 69 0 77 2 127 36 29 21 65 37 80 37 15 0 42 13 61 30
19 16 46 29 58 30 13 0 36 8 50 18 15 10 58 32 96 47 82 35 146 79 146 101 0
9 31 49 69 89 38 40 81 95 97 121 53 93 64 106 81 93 8 -7 24 -31 35 -53 32
-65 56 -86 99 -86 69 0 108 74 96 186 -5 45 -17 72 -75 161 -39 60 -73 117
-76 129 -7 24 27 74 50 74 8 0 38 -17 67 -39 71 -52 100 -61 186 -51 54 6 79
14 107 35 72 55 82 143 25 234 -33 54 -37 75 -22 114 17 44 -21 77 -69 60z"/>
<path d="M1713 8723 c-10 -25 14 -194 42 -303 18 -70 25 -122 25 -197 0 -98 2
-107 40 -192 22 -49 40 -94 40 -99 0 -16 36 -33 54 -26 21 8 20 43 -4 133 -11
41 -20 84 -20 95 0 12 -12 48 -26 81 -13 33 -34 116 -45 185 -26 163 -59 312
-71 328 -14 17 -27 15 -35 -5z"/>
<path d="M7320 8652 c-19 -20 -30 -43 -34 -78 -9 -63 3 -93 51 -133 33 -27 45
-31 100 -31 53 0 64 3 73 21 8 14 9 29 2 47 -6 15 -13 43 -16 63 -5 26 -21 49
-61 87 -30 29 -62 52 -71 52 -8 0 -28 -13 -44 -28z"/>
<path d="M5905 8576 c-35 -35 -44 -124 -17 -168 30 -49 62 -75 106 -87 56 -15
91 -4 132 41 33 36 35 43 29 81 -18 104 -77 157 -175 157 -40 0 -56 -5 -75
-24z"/>
<path d="M13755 8300 c-3 -6 -17 -7 -30 -4 -18 4 -33 -4 -69 -40 -54 -54 -57
-76 -25 -160 20 -52 24 -56 55 -56 18 0 43 4 57 9 13 5 30 6 37 1 18 -11 40
-1 40 17 0 9 9 31 21 49 30 49 18 117 -27 162 -34 33 -49 39 -59 22z"/>
<path d="M5450 8024 c-14 -3 -44 -7 -67 -10 -33 -4 -44 -10 -52 -32 -6 -15
-25 -48 -42 -75 -29 -44 -59 -149 -59 -206 0 -40 70 -159 119 -202 73 -65 114
-82 212 -87 72 -4 94 -1 134 17 26 11 68 21 94 21 79 0 118 11 149 41 55 54
46 122 -23 175 -63 49 -74 61 -81 101 -4 21 -24 64 -45 95 -22 31 -39 61 -39
67 0 5 -12 23 -26 40 -20 25 -34 31 -64 31 -21 0 -54 7 -73 15 -34 14 -80 17
-137 9z"/>
<path d="M3868 7440 c-12 -16 -33 -42 -45 -58 -12 -16 -39 -34 -61 -40 -21 -7
-46 -20 -56 -30 -22 -26 -24 -99 -2 -143 15 -31 32 -43 125 -88 60 -28 113
-51 118 -51 5 0 20 -11 33 -24 33 -36 63 -39 200 -21 132 17 153 26 208 89 22
25 31 48 36 90 9 70 1 111 -32 154 -36 47 -100 76 -230 101 -61 12 -128 29
-147 37 -19 7 -54 14 -79 14 -37 0 -48 -5 -68 -30z"/>
<path d="M16250 7410 c-20 -10 -57 -41 -84 -70 -46 -50 -48 -53 -42 -98 3 -26
9 -81 12 -122 4 -52 11 -79 22 -87 25 -20 86 -16 107 7 9 10 34 25 54 31 52
17 71 32 116 90 98 128 100 129 175 129 68 0 83 8 72 38 -3 8 -28 12 -80 12
-70 0 -82 3 -163 45 -96 50 -134 55 -189 25z"/>
<path d="M15080 7387 c-25 -13 -65 -27 -89 -31 -62 -9 -96 -30 -115 -70 -34
-72 -10 -145 58 -171 27 -11 61 -38 98 -79 49 -54 63 -64 117 -79 112 -31 175
-18 207 44 7 15 14 39 14 51 0 13 16 40 35 61 19 20 35 41 35 45 0 4 -16 24
-36 43 -20 18 -47 54 -62 79 -49 86 -86 112 -174 125 -34 5 -52 1 -88 -18z"/>
<path d="M14624 7195 c-24 -7 -43 -20 -51 -35 -15 -30 -17 -114 -3 -141 29
-53 138 -66 190 -23 30 26 31 27 26 101 -2 42 -9 80 -15 86 -17 17 -105 24
-147 12z"/>
<path d="M16572 7100 c-26 -16 -49 -20 -115 -20 -98 0 -132 -15 -224 -99 -33
-31 -80 -69 -104 -86 -69 -49 -83 -76 -87 -163 -3 -67 -1 -81 20 -111 12 -19
45 -48 72 -63 43 -26 53 -28 77 -18 32 14 86 5 111 -17 12 -11 28 -13 52 -9
20 4 54 2 75 -5 58 -17 296 4 331 29 35 26 87 116 95 164 7 37 3 46 -34 97
-51 69 -101 168 -101 199 0 32 -29 91 -49 101 -39 22 -86 22 -119 1z"/>
<path d="M15594 6817 c-54 -32 -104 -83 -115 -116 -6 -20 -18 -44 -27 -54 -19
-22 -8 -49 43 -105 19 -22 35 -48 35 -59 0 -29 16 -38 88 -51 34 -6 74 -20 89
-31 29 -24 130 -30 151 -9 17 17 15 48 -3 69 -15 15 -14 20 8 53 22 31 24 41
16 73 -6 21 -12 56 -16 78 -5 39 -63 115 -88 115 -6 0 -27 11 -47 25 -40 27
-99 33 -134 12z"/>
<path d="M15147 6750 c-24 -4 -53 -21 -79 -46 l-40 -39 6 -80 c8 -95 23 -121
91 -154 39 -18 53 -21 67 -12 10 6 36 11 57 11 37 0 81 28 81 51 0 4 12 22 27
39 26 31 26 34 15 88 -22 106 -114 164 -225 142z"/>
<path d="M14576 6724 c-18 -18 -21 -76 -6 -105 6 -11 30 -24 55 -30 51 -13 57
-19 75 -76 11 -37 17 -43 41 -43 31 0 49 -23 49 -63 0 -31 38 -118 59 -134 23
-18 98 -16 126 3 38 25 34 74 -9 112 -19 16 -50 35 -70 42 -20 6 -36 16 -36
21 0 5 8 4 19 -2 39 -25 51 -6 51 82 0 80 -1 82 -34 114 -29 27 -44 33 -94 37
-46 3 -67 10 -92 31 -37 32 -108 38 -134 11z"/>
<path d="M16525 6420 c-22 -10 -55 -19 -74 -19 -40 -1 -104 -39 -175 -102 -28
-25 -59 -49 -68 -52 -15 -5 -18 -18 -18 -69 0 -53 -5 -70 -30 -108 -38 -57
-40 -100 -6 -100 29 0 56 -24 56 -49 0 -10 -11 -28 -25 -41 -29 -27 -33 -49
-7 -48 9 0 22 0 27 -2 22 -5 34 1 29 15 -4 8 -10 12 -15 9 -5 -3 -7 -11 -3
-17 3 -7 -2 -3 -10 7 -19 23 -20 32 -6 41 6 3 10 -2 10 -11 0 -10 3 -14 7 -11
3 4 13 1 21 -6 13 -10 14 -9 3 11 -11 20 -10 27 5 43 9 10 22 19 28 18 6 0 6
-3 -2 -6 -6 -2 -10 -9 -6 -14 3 -5 0 -8 -7 -7 -6 2 -13 -2 -16 -8 -9 -25 27
-8 38 17 9 23 15 27 29 19 16 -9 17 -7 7 14 -8 17 -14 21 -19 13 -5 -8 -8 -6
-8 5 0 23 36 47 63 41 17 -4 19 -2 8 5 -11 8 -10 11 5 14 10 3 28 -3 38 -11
18 -15 18 -15 9 4 -15 30 -6 50 15 33 15 -12 16 -11 3 5 -13 16 -13 20 0 28 8
5 10 9 6 9 -4 0 -3 9 3 20 6 11 16 17 22 14 8 -5 9 -1 5 10 -4 10 -3 15 3 11
6 -3 10 1 10 9 0 9 7 16 15 16 8 0 15 6 15 13 0 6 6 3 12 -7 8 -14 8 -24 -2
-40 -12 -19 -12 -20 3 -7 10 7 17 20 17 28 0 13 3 13 18 2 16 -13 16 -13 0 7
-22 25 -24 41 -3 24 9 -7 18 -10 22 -6 3 3 1 6 -5 6 -7 0 -12 5 -12 11 0 5 4
8 9 5 5 -3 11 1 14 8 4 9 -1 17 -11 19 -11 3 -8 5 8 6 14 0 31 10 38 21 13 22
58 45 79 41 8 -1 10 4 7 14 -8 19 -18 19 -34 0 -7 -8 -16 -15 -20 -15 -3 0 -7
7 -7 15 0 14 10 19 30 16 4 -1 10 6 13 14 3 8 11 12 16 9 6 -4 5 3 -1 15 -13
23 0 29 17 8 7 -8 7 -18 2 -27 -13 -21 -12 -30 3 -24 15 5 22 70 8 78 -5 4
-21 1 -35 -6 -22 -10 -29 -8 -49 9 -32 30 -75 35 -122 13z"/>
<path d="M14005 6385 c-51 -17 -75 -20 -88 -13 -26 13 -47 3 -47 -24 0 -14
-17 -38 -45 -64 -38 -34 -45 -47 -45 -78 0 -20 -12 -60 -26 -88 -21 -41 -24
-56 -15 -70 6 -10 11 -28 11 -42 0 -13 8 -34 18 -47 10 -13 31 -47 46 -76 51
-93 108 -130 229 -148 26 -4 62 -18 80 -31 74 -54 105 -53 119 4 9 33 11 35
67 36 32 1 36 4 47 43 7 23 25 58 40 78 17 23 28 51 30 77 1 23 12 54 23 69
25 33 26 57 7 85 -8 11 -18 47 -23 80 -8 58 -9 59 -43 64 -29 4 -37 11 -46 38
-5 17 -28 50 -50 73 -36 37 -42 39 -77 34 -26 -5 -45 -2 -62 9 -32 21 -66 19
-150 -9z"/>
<path d="M14545 5711 c-3 -5 -30 -15 -61 -21 -45 -10 -59 -17 -75 -43 -35 -58
-15 -150 35 -163 13 -3 33 -16 44 -29 16 -18 26 -22 44 -16 97 31 102 39 101
142 0 57 -4 72 -28 103 -27 35 -48 45 -60 27z"/>
<path d="M5913 5662 c-24 -15 -43 -30 -43 -33 0 -20 51 -77 83 -93 31 -15 47
-17 80 -10 37 8 43 14 55 49 18 55 3 89 -47 104 -55 16 -81 13 -128 -17z"/>
<path d="M6670 5435 c-14 -8 -42 -14 -63 -15 -129 -1 -255 -220 -218 -382 21
-98 53 -149 140 -229 106 -96 136 -107 307 -108 144 -1 147 0 159 59 4 19 17
49 29 65 54 72 71 205 40 301 -37 109 -259 324 -335 324 -19 -1 -45 -7 -59
-15z"/>
<path d="M13815 5381 c-58 -10 -81 -26 -110 -74 -58 -100 -40 -174 69 -282 46
-46 78 -68 129 -88 37 -15 79 -27 93 -27 14 0 38 -7 54 -15 18 -10 51 -14 91
-12 l62 2 21 -40 c26 -49 63 -69 101 -55 14 5 38 10 51 10 31 0 105 -42 122
-70 7 -11 18 -20 26 -20 7 0 16 -9 19 -20 3 -11 12 -20 21 -20 22 0 21 36 -1
49 -29 16 -6 25 32 14 39 -13 46 -2 18 29 -20 22 -20 73 1 94 9 8 16 29 16 45
0 22 7 32 25 41 28 13 32 30 10 48 -8 7 -15 21 -15 31 0 10 -4 21 -10 24 -5 3
-10 19 -10 35 0 45 -87 123 -147 132 -72 11 -103 27 -103 54 0 39 -17 36 -42
-8 -16 -30 -37 -50 -68 -65 -25 -13 -53 -33 -64 -45 l-18 -23 -22 26 c-11 14
-51 65 -88 112 -37 47 -80 93 -96 101 -36 19 -114 27 -167 17z"/>
<path d="M5675 5213 l-47 -58 7 -75 c8 -82 13 -96 57 -153 37 -47 60 -59 123
-67 69 -10 104 3 154 54 47 48 59 90 47 171 -6 39 -18 56 -74 115 l-67 70 -76
0 -77 0 -47 -57z"/>
<path d="M13296 4846 c-17 -19 -44 -39 -59 -45 -25 -10 -28 -15 -25 -49 4 -45
-15 -59 -22 -17 -5 26 -12 32 -60 47 -30 10 -64 28 -75 41 -28 32 -49 38 -86
25 -23 -8 -40 -7 -67 1 -46 15 -76 5 -129 -42 -21 -19 -47 -36 -57 -38 -20 -4
-24 -10 -50 -71 -20 -46 -20 -53 4 -107 19 -42 20 -47 5 -93 l-17 -48 54 -51
c29 -28 80 -63 113 -79 99 -45 131 -90 80 -110 -27 -10 -31 -26 -12 -51 36
-47 107 -24 107 34 0 49 18 62 46 32 50 -54 114 -14 114 71 0 44 4 52 36 79
34 29 36 34 35 87 0 65 15 88 57 88 39 0 55 -14 56 -46 1 -20 7 -30 20 -32 16
-3 18 1 14 27 -4 26 -1 31 16 31 27 0 40 -9 55 -37 6 -13 19 -23 27 -23 13 0
15 7 11 33 -6 42 16 88 53 110 39 24 49 62 25 101 -10 17 -21 50 -24 74 l-6
43 -70 24 c-98 35 -130 33 -169 -9z"/>
<path d="M7649 4713 c-15 -10 -58 -40 -98 -67 -82 -57 -99 -93 -73 -158 16
-39 126 -98 197 -105 l56 -6 44 46 c24 25 57 53 74 61 39 21 190 31 259 18
100 -18 160 13 211 108 11 19 31 46 45 59 27 26 35 61 13 61 -7 0 -37 -24 -66
-54 -32 -32 -67 -58 -89 -64 -58 -17 -184 -25 -260 -17 -68 7 -73 9 -142 67
-81 68 -126 82 -171 51z"/>
<path d="M4095 4658 c-43 -15 -93 -55 -109 -86 -69 -138 37 -283 198 -270 140
12 217 147 153 269 -42 78 -153 118 -242 87z"/>
<path d="M8092 4405 c-23 -30 -117 -65 -173 -65 -83 0 -159 -59 -159 -123 0
-13 -12 -55 -26 -93 -14 -39 -26 -92 -27 -122 -1 -46 3 -56 28 -82 24 -24 44
-31 104 -41 81 -12 184 -5 235 16 86 36 178 191 179 301 1 68 -12 97 -68 146
-24 21 -33 36 -32 56 3 38 -33 42 -61 7z"/>
<path d="M14435 4340 c-3 -11 -18 -23 -33 -26 -52 -12 -60 -15 -102 -45 -67
-49 -98 -151 -69 -226 19 -48 27 -93 18 -99 -18 -11 -9 -34 14 -34 21 1 21 1
4 14 -12 9 -14 16 -8 21 6 3 11 1 11 -4 0 -6 6 -10 13 -9 6 2 11 -2 10 -8 -1
-6 4 -11 12 -11 7 0 11 7 7 15 -3 10 -1 13 6 9 13 -9 62 12 62 26 0 5 -12 2
-26 -8 -15 -9 -24 -12 -20 -7 3 6 1 12 -6 15 -7 2 -5 3 4 2 10 -2 21 1 24 6 3
5 1 9 -4 9 -5 0 -9 6 -9 13 0 14 35 17 55 4 8 -6 12 -2 12 12 0 12 7 21 15 21
8 0 15 5 15 11 0 5 5 7 11 3 8 -4 9 0 4 15 -3 12 -3 21 2 20 4 -1 15 -1 23 0
13 1 13 3 0 10 -8 6 -18 7 -22 5 -4 -3 -5 2 -1 11 3 9 9 13 12 8 3 -5 14 -12
24 -16 14 -5 16 -2 12 16 -7 30 16 72 40 73 11 1 26 2 33 3 6 1 12 6 12 12 0
8 -4 8 -12 1 -8 -5 -22 -6 -33 -1 -11 4 -15 8 -8 8 8 1 10 8 6 19 -5 13 -4 15
8 6 19 -14 45 -11 42 4 -3 14 13 16 22 3 3 -5 1 -12 -5 -16 -5 -3 -10 -14 -9
-23 0 -12 3 -10 10 7 6 16 14 21 26 17 11 -5 9 1 -7 17 -14 13 -28 22 -32 20
-3 -2 -4 6 -1 17 5 18 0 20 -41 20 -39 0 -49 4 -68 30 -25 35 -44 38 -53 10z"/>
<path d="M8865 3794 c-74 -41 -90 -46 -148 -51 -69 -6 -100 -26 -122 -81 -10
-23 -27 -38 -57 -51 -52 -22 -91 -62 -86 -87 5 -27 36 -29 63 -4 53 49 60 -18
14 -124 -77 -179 -120 -239 -177 -252 -55 -12 -83 -27 -105 -58 -12 -17 -49
-65 -83 -107 -81 -101 -86 -124 -41 -197 52 -84 95 -84 181 1 29 29 71 64 93
78 26 17 48 44 64 75 12 27 40 71 61 97 21 27 61 94 89 148 60 116 97 149 167
149 49 0 113 29 137 62 8 13 25 52 36 87 23 77 31 88 70 96 42 9 50 48 17 83
-14 15 -28 39 -32 55 -8 36 -54 85 -86 92 -14 3 -38 -2 -55 -11z"/>
<path d="M12222 3504 c-29 -20 -29 -67 -1 -95 17 -17 29 -20 61 -15 l39 6 -5
-55 c-3 -30 -9 -81 -12 -112 -3 -35 -16 -76 -31 -102 -29 -49 -100 -131 -115
-131 -5 0 -31 20 -57 45 -40 38 -54 45 -88 45 -49 0 -89 -29 -110 -78 -8 -20
-25 -44 -38 -54 -46 -36 -58 -185 -20 -257 8 -17 31 -45 51 -63 51 -47 73 -87
80 -151 9 -75 -10 -107 -64 -107 -20 0 -46 7 -56 15 -43 32 -86 3 -86 -58 0
-48 39 -81 90 -74 28 3 42 -2 68 -25 40 -34 76 -36 140 -7 55 25 67 20 101
-40 21 -39 26 -42 59 -39 46 4 62 32 62 107 0 53 -2 57 -50 103 -57 55 -89 62
-110 24 -22 -42 -60 -45 -60 -6 0 14 11 22 38 29 21 6 54 28 77 51 21 22 42
40 46 40 3 0 30 -19 59 -42 53 -42 178 -92 206 -81 9 3 14 20 14 47 0 24 7 65
16 92 9 27 19 69 23 94 l6 45 52 5 c67 7 103 38 103 90 0 20 6 45 14 55 12 17
17 18 41 7 37 -17 65 -7 65 24 0 23 -12 30 -49 24 -29 -4 -58 11 -69 35 -18
39 -15 52 16 64 39 15 86 57 78 70 -4 6 -33 11 -65 11 -69 0 -80 9 -71 59 11
62 1 98 -36 131 -19 16 -44 30 -55 30 -29 0 -59 -18 -59 -35 0 -8 -7 -15 -15
-15 -8 0 -15 6 -15 13 0 14 -100 170 -130 202 -10 11 -22 33 -26 48 -10 44
-70 61 -112 31z"/>
<path d="M7948 3450 c-9 -6 -25 -25 -36 -43 -58 -97 -16 -198 83 -199 40 -1
49 3 75 33 23 26 29 44 30 79 0 46 -26 102 -59 127 -19 15 -69 16 -93 3z"/>
<path d="M13560 3400 c-21 -22 -44 -40 -50 -40 -6 0 -10 -25 -10 -60 0 -55 -2
-60 -25 -66 -14 -3 -37 1 -56 10 -17 8 -46 18 -64 22 -30 5 -38 1 -96 -55 -34
-34 -73 -64 -86 -67 -13 -4 -23 -10 -23 -14 0 -19 30 -77 49 -94 12 -11 21
-29 21 -42 0 -38 -36 -54 -117 -54 -66 0 -76 -3 -105 -29 -30 -27 -32 -33 -30
-86 2 -45 10 -70 35 -111 30 -50 60 -78 37 -34 -10 18 -8 19 14 10 20 -7 27
-6 34 7 5 9 16 14 24 11 9 -4 14 1 14 13 0 12 -4 15 -10 9 -6 -6 -13 -10 -17
-10 -13 0 -17 27 -7 41 8 12 9 11 5 -1 -4 -12 4 -15 32 -15 37 0 38 0 17 18
-17 15 -18 18 -3 13 11 -4 17 0 17 10 0 10 -6 14 -15 10 -26 -10 -16 3 15 19
18 9 28 21 24 27 -4 6 -3 8 3 5 6 -4 9 -18 8 -32 -4 -33 13 -32 21 1 4 17 11
23 22 19 12 -4 13 -3 2 10 -7 8 -16 13 -20 10 -12 -7 -6 21 8 37 6 8 8 19 4
23 -4 5 -1 5 6 1 11 -6 10 -11 -3 -26 -15 -16 -15 -18 0 -24 26 -9 42 -7 25 4
-10 6 -11 10 -2 10 6 0 12 7 12 15 0 8 5 15 11 15 5 0 8 4 5 9 -6 10 21 37 29
29 3 -3 -4 -16 -15 -30 -17 -23 -18 -27 -4 -32 24 -9 26 -8 19 14 -7 22 20 29
28 8 4 -10 6 -10 6 0 1 7 -5 15 -13 18 -9 4 -13 15 -10 32 3 21 2 23 -6 12 -5
-8 -10 -10 -10 -4 0 5 7 19 16 30 8 10 13 15 11 9 -7 -14 10 -55 23 -55 5 0
10 5 10 11 0 5 -4 7 -10 4 -6 -4 -10 5 -9 22 1 17 3 21 6 11 2 -10 10 -18 18
-18 11 0 29 26 28 40 -1 3 6 12 15 19 14 13 15 13 10 -5 -3 -13 0 -21 7 -21
14 0 10 50 -5 55 -4 2 -6 11 -3 22 3 12 10 16 21 13 10 -4 13 -2 8 5 -5 8 -2
10 8 6 9 -3 13 -11 10 -16 -4 -6 3 -5 15 1 11 7 21 14 21 17 0 3 -5 2 -12 -2
-7 -4 -8 -3 -4 4 4 6 14 8 22 5 20 -7 37 17 23 33 -6 8 -5 14 6 18 8 3 15 0
15 -7 1 -7 7 -1 15 13 10 18 14 20 15 8 0 -9 5 -20 12 -24 8 -5 9 -2 5 9 -4
12 -1 17 11 18 12 0 11 3 -6 10 -13 5 -20 14 -17 20 5 8 10 8 18 0 16 -16 27
-13 27 7 0 15 -2 15 -11 2 -9 -13 -10 -13 -6 1 3 9 0 22 -6 30 -7 7 1 5 17 -5
28 -18 29 -18 24 1 -3 10 1 24 9 31 8 8 13 9 13 2 0 -6 5 -8 11 -5 6 4 8 13 5
20 -2 7 2 16 11 19 11 5 14 2 9 -11 -6 -14 -4 -15 5 -6 14 14 2 36 -17 29 -15
-6 -15 27 0 41 4 5 6 1 4 -7 -1 -8 3 -14 10 -12 6 1 12 -2 12 -7 0 -5 12 -11
28 -14 27 -5 27 -5 5 10 -19 12 -21 19 -12 37 9 20 9 20 -4 3 -9 -10 -18 -14
-21 -8 -3 5 0 11 6 14 10 3 10 9 2 23 -9 15 -25 20 -72 22 -61 3 -63 2 -102
-38z"/>
<path d="M12645 2419 c-4 -5 -4 -21 -1 -35 6 -21 3 -24 -19 -24 -38 0 -78 -44
-72 -78 10 -53 16 -74 27 -87 8 -10 6 -15 -9 -20 -12 -3 -21 -10 -21 -14 0 -4
-7 -8 -15 -8 -17 0 -19 15 -5 37 6 10 10 11 10 3 0 -7 7 -13 16 -13 11 0 14 5
9 18 -3 9 -7 22 -8 27 -3 17 -107 45 -131 35 -49 -19 -68 -54 -78 -147 -5 -48
-14 -89 -19 -91 -5 -2 -18 -11 -30 -21 -18 -15 -20 -21 -10 -39 12 -22 40 -26
53 -7 4 5 2 15 -3 22 -8 9 0 11 33 8 23 -2 37 -1 30 4 -10 6 -10 10 2 20 10 8
16 9 21 1 3 -5 11 -10 16 -10 6 0 3 7 -5 16 -9 8 -16 20 -16 27 0 6 7 2 15 -9
15 -19 15 -19 8 1 -3 11 -3 17 1 13 10 -8 36 14 29 25 -2 4 0 7 5 7 16 0 24
33 10 42 -9 5 -7 8 8 8 11 0 25 5 32 12 9 9 13 7 18 -5 3 -9 11 -17 16 -17 7
0 6 5 -1 13 -8 10 -7 17 1 25 15 15 32 16 23 2 -3 -5 -1 -10 4 -10 14 0 14 26
1 50 -14 26 -2 53 22 47 14 -4 18 -1 14 8 -2 7 3 19 12 27 15 11 15 11 5 -2
-7 -9 -8 -21 -4 -29 11 -17 19 -3 17 30 -1 17 3 25 11 22 6 -3 9 -12 6 -21 -5
-12 -2 -11 14 4 11 10 18 23 15 28 -2 4 -8 2 -13 -5 -7 -11 -9 -10 -9 4 0 10
-4 16 -9 12 -5 -3 -12 -1 -16 4 -3 6 3 8 15 6 11 -2 20 0 20 6 0 5 -5 9 -12 9
-9 0 -9 3 0 12 7 7 12 25 12 40 0 21 -5 28 -19 28 -11 0 -23 -5 -26 -11z"/>
<path d="M10904 2279 c-11 -18 -44 -120 -44 -138 0 -8 8 -20 18 -27 16 -13 15
-16 -11 -39 -20 -18 -33 -23 -45 -17 -59 30 -148 -96 -98 -138 8 -6 16 -21 18
-33 4 -28 36 -34 53 -10 17 23 33 8 17 -17 -18 -30 -15 -43 21 -77 39 -37 71
-46 120 -32 43 12 45 20 15 93 -21 51 -26 55 -58 58 -41 4 -58 38 -18 38 33 0
207 -45 243 -63 40 -19 203 -31 221 -16 24 20 16 53 -21 82 -28 22 -34 34 -33
60 2 51 -35 95 -87 103 -25 3 -51 1 -63 -5 -28 -15 -43 -14 -70 7 -20 16 -22
22 -12 46 12 32 -1 96 -25 116 -22 19 -130 26 -141 9z"/>
<path d="M8094 2036 c-47 -21 -74 -61 -74 -113 0 -85 48 -133 132 -133 77 1
128 51 128 125 0 98 -95 160 -186 121z"/>
<path d="M11850 1783 c-8 -3 -25 -15 -37 -26 -20 -18 -23 -30 -23 -96 0 -59
-5 -83 -20 -106 -11 -16 -20 -33 -20 -37 0 -12 48 -9 56 3 3 6 22 9 40 7 25
-3 34 0 34 11 0 12 3 12 12 3 17 -17 28 -15 21 5 -5 12 -3 14 8 7 24 -15 38
-13 31 4 -5 15 -4 15 13 2 17 -14 18 -14 5 10 -13 24 -12 24 5 10 11 -9 16
-10 11 -2 -4 6 -3 12 3 12 6 0 8 7 5 15 -5 11 2 15 26 15 26 0 31 3 26 16 -5
14 -4 15 9 4 12 -10 15 -10 15 2 0 8 -5 19 -12 26 -9 9 -9 12 0 12 7 0 12 -4
12 -10 0 -5 5 -10 11 -10 8 0 8 4 0 14 -9 11 -9 15 1 19 7 3 -2 4 -19 2 -28
-3 -38 3 -71 42 -34 39 -45 46 -83 49 -24 2 -51 1 -59 -3z"/>
<path d="M10905 1683 c-34 -9 -65 -35 -65 -54 0 -10 5 -30 12 -44 9 -19 9 -28
0 -37 -18 -18 -14 -30 8 -23 32 10 24 -13 -20 -61 -41 -44 -50 -80 -28 -102
14 -14 3 -28 -27 -34 -11 -2 -21 -11 -23 -20 -4 -21 34 -34 53 -18 10 9 33 10
73 6 124 -15 117 -17 120 39 2 27 8 55 14 62 14 18 63 16 78 -2 7 -8 19 -15
27 -15 11 0 13 -16 10 -79 -2 -45 -9 -86 -16 -95 -17 -21 -6 -48 17 -44 11 2
21 -1 23 -7 2 -5 -8 -11 -22 -13 -21 -2 -31 4 -47 32 -17 29 -27 36 -52 36
-23 0 -33 -6 -42 -25 -10 -23 -8 -29 20 -58 29 -30 32 -38 32 -100 0 -75 10
-87 74 -87 42 0 44 -5 14 -29 -13 -11 -19 -24 -15 -34 7 -19 42 -23 52 -6 12
19 43 -19 37 -46 -2 -15 0 -25 8 -25 7 0 9 8 5 20 -5 14 -2 20 10 20 9 0 13 5
10 10 -3 6 -1 10 4 10 6 0 11 -6 12 -12 0 -7 4 -3 9 9 5 13 14 23 20 23 6 0
21 10 33 21 17 17 18 21 5 16 -10 -4 -18 -2 -18 4 0 6 -4 8 -9 4 -5 -3 -12 -1
-15 3 -3 5 13 8 35 8 41 -2 60 8 35 17 -7 3 -13 18 -13 33 0 23 1 24 9 10 9
-16 11 -16 22 -1 11 16 13 15 27 -2 13 -16 13 -17 -3 -4 -16 12 -18 11 -18 -3
0 -17 11 -19 50 -6 25 8 25 8 2 9 -16 1 -23 7 -21 19 3 30 -1 37 -12 22 -9
-13 -10 -13 -6 0 2 8 11 14 20 12 9 -1 25 6 36 17 l20 20 -29 18 c-17 9 -30
21 -30 26 0 9 40 48 88 85 33 25 34 25 63 8 30 -18 31 -17 53 3 24 23 42 28
30 9 -4 -7 -3 -8 5 -4 6 4 9 19 7 33 -4 17 -1 23 8 20 9 -4 11 4 8 24 -5 33
-35 59 -69 59 -28 0 -30 21 -4 44 55 50 4 116 -55 71 -29 -22 -49 -18 -83 16
-21 20 -31 40 -31 60 0 22 -5 29 -19 29 -10 0 -24 -7 -31 -15 -18 -22 -36 -18
-58 12 -23 32 -42 23 -42 -19 l0 -31 -23 21 c-15 14 -36 22 -59 22 -44 0 -95
17 -102 35 -2 7 -18 16 -35 20 -16 3 -33 15 -36 25 -9 29 -69 46 -120 33z"/>
<path d="M7209 1233 c-80 -49 -82 -175 -4 -223 39 -24 113 -27 154 -6 87 46
87 186 0 232 -37 19 -118 18 -150 -3z"/>
<path d="M10840 1099 c-13 -5 -31 -16 -40 -23 -8 -8 -31 -19 -51 -25 -19 -6
-52 -29 -73 -50 -37 -38 -37 -38 -30 -101 9 -84 30 -106 114 -123 60 -12 65
-15 70 -42 4 -21 12 -31 28 -33 19 -3 22 1 22 35 0 49 21 78 64 93 42 13 44
20 52 124 7 81 6 83 -22 115 -32 36 -90 49 -134 30z"/>
<path d="M8223 963 c-72 -77 -103 -133 -110 -197 -7 -69 16 -112 67 -126 49
-14 45 -15 96 32 80 74 94 117 79 248 -13 117 -52 129 -132 43z"/>
<path d="M10746 675 c-23 -24 -31 -97 -13 -132 9 -17 17 -64 19 -113 2 -63 7
-84 18 -88 8 -3 12 -1 8 3 -4 5 -3 14 3 22 9 11 15 11 28 1 9 -7 6 -1 -7 14
-15 17 -20 28 -13 33 6 3 8 11 5 17 -4 7 -2 8 4 4 7 -4 12 -14 12 -22 0 -8 4
-13 10 -9 5 3 6 13 3 21 -5 13 0 14 31 9 24 -5 36 -3 36 4 0 6 -3 10 -7 10 -5
-1 -21 -1 -38 0 -22 1 -26 4 -16 10 9 6 22 6 32 1 12 -7 21 -5 29 5 15 18 34
20 24 3 -4 -7 -3 -8 5 -4 8 5 2 16 -19 36 -33 31 -38 43 -15 34 8 -4 15 -10
15 -14 0 -5 8 -7 18 -6 9 2 17 8 17 15 0 7 10 23 23 36 l23 24 -33 36 c-27 32
-36 36 -64 32 -24 -4 -40 0 -58 14 -29 23 -59 24 -80 4z"/>
</g>
</svg>
