<?xml version="1.0" standalone="no"?>
<!DOCTYPE svg PUBLIC "-//W3C//DTD SVG 20010904//EN"
 "http://www.w3.org/TR/2001/REC-SVG-20010904/DTD/svg10.dtd">
<svg version="1.0" xmlns="http://www.w3.org/2000/svg"
 width="600.000000pt" height="450.000000pt" viewBox="0 0 600.000000 450.000000"
 preserveAspectRatio="xMidYMid meet">
  <defs>
    <radialGradient id="grad1" cx="50%" cy="50%" r="50%" fx="50%" fy="50%">
      <stop offset="0%" style="stop-color:rgb(0, 115, 201);
      stop-opacity:0" />
      <stop offset="100%" style="stop-color:rgb(255,255,255);stop-opacity:1" />
    </radialGradient>
  </defs>
<g transform="translate(0.000000,450.000000) scale(0.100000,-0.100000)"
fill="url(#grad1)" stroke="none">
<path d="M0 2250 l0 -2250 3000 0 3000 0 0 2250 0 2250 -3000 0 -3000 0 0
-2250z m3360 1980 c0 -5 11 -10 25 -10 27 0 27 1 70 -115 30 -82 68 -165 75
-165 3 0 4 -62 2 -137 -4 -151 -2 -144 -112 -338 -111 -194 -129 -245 -139
-390 -10 -144 20 -305 63 -336 5 -4 5 -12 2 -18 -4 -6 -2 -11 3 -11 6 0 11 -7
11 -15 0 -8 7 -15 15 -15 9 0 27 -7 40 -16 17 -11 35 -14 57 -10 18 4 53 6 78
4 60 -3 170 -3 250 2 54 3 86 -3 183 -33 65 -20 132 -37 147 -37 16 0 41 -11
57 -24 15 -13 44 -31 63 -41 19 -10 55 -41 80 -68 91 -102 180 -143 445 -203
103 -23 133 -26 210 -20 49 3 103 9 120 13 26 5 18 -5 -59 -78 -92 -87 -114
-99 -230 -126 -38 -8 -84 -22 -102 -29 -18 -8 -44 -14 -56 -13 -22 0 -22 1 -3
9 12 6 -11 7 -60 2 -144 -13 -274 -6 -340 18 -109 39 -377 51 -529 25 -116
-20 -193 -53 -266 -112 -8 -7 -24 -20 -35 -29 -20 -15 -20 -15 3 -11 18 4 22
1 22 -21 0 -36 29 -78 74 -108 l36 -25 0 -105 c0 -58 6 -135 14 -172 8 -37 22
-116 32 -175 17 -108 17 -108 -6 -185 -13 -42 -27 -106 -30 -142 -4 -36 -13
-94 -20 -129 -15 -76 -2 -180 31 -238 28 -49 60 -96 74 -105 7 -6 6 -11 -3
-17 -10 -6 -6 -10 15 -15 32 -9 73 -43 73 -63 0 -8 6 -26 14 -41 l14 -28 -56
7 c-42 4 -85 21 -162 61 -58 31 -136 66 -173 78 -58 19 -71 27 -82 54 -15 34
-74 119 -87 124 -4 2 -8 9 -8 15 0 6 -6 18 -14 26 -7 9 -27 71 -44 138 -17 67
-43 145 -56 171 -14 27 -23 52 -20 54 2 3 -2 11 -11 18 -8 7 -15 23 -15 35 0
13 -10 36 -22 52 -40 50 -65 88 -92 140 -16 33 -41 62 -68 80 -40 27 -52 39
-129 125 -32 36 -41 41 -82 42 -37 1 -51 -4 -75 -27 -16 -16 -38 -44 -48 -63
-10 -19 -26 -36 -35 -39 -9 -3 -29 -19 -45 -35 -17 -17 -40 -30 -55 -30 -15 0
-32 -7 -39 -15 -9 -10 -32 -15 -74 -15 -33 0 -110 -10 -171 -22 -60 -11 -129
-20 -152 -19 -291 8 -336 6 -418 -22 -106 -37 -157 -68 -232 -140 l-63 -60 0
79 c0 84 51 308 83 371 10 19 39 44 74 64 32 18 82 49 111 70 34 24 75 42 110
50 101 20 160 48 210 98 26 26 68 61 93 78 27 19 52 46 59 65 8 18 26 48 42
66 16 19 31 47 35 63 3 16 9 29 14 29 13 0 -12 39 -46 72 -41 40 -120 75 -202
90 -42 7 -103 30 -161 59 -79 41 -100 57 -139 107 -25 33 -53 82 -62 109 -22
65 -120 227 -146 240 -11 6 -42 22 -70 36 -27 13 -74 41 -104 61 -30 19 -83
48 -118 63 -56 24 -63 31 -63 55 0 16 2 28 4 28 26 0 192 34 224 46 40 15 49
15 100 1 64 -18 108 -24 232 -32 63 -5 90 -11 105 -25 24 -22 113 -70 131 -70
7 0 35 -20 64 -44 96 -82 261 -113 438 -82 50 9 102 16 115 16 35 0 127 98
127 136 0 6 15 37 34 68 19 31 39 79 46 106 10 41 25 62 91 129 51 51 87 97
100 128 11 26 25 58 31 70 14 29 211 202 279 246 154 98 242 264 239 447 -1
36 -1 68 -1 73 1 11 41 8 41 -3z"/>
</g>
</svg>
